<svg width="172" height="133" viewBox="0 0 172 133" fill="none" xmlns="http://www.w3.org/2000/svg">
<path d="M18.7511 96.231C17.5051 96.231 16.5251 95.986 15.8111 95.496C15.1111 95.006 14.6211 94.341 14.3411 93.501C14.0611 92.647 13.9211 91.667 13.9211 90.561V84.492C13.9211 83.33 14.0611 82.322 14.3411 81.468C14.6211 80.614 15.1111 79.956 15.8111 79.494C16.5251 79.032 17.5051 78.801 18.7511 78.801C19.9271 78.801 20.8441 79.004 21.5021 79.41C22.1741 79.802 22.6501 80.369 22.9301 81.111C23.2101 81.853 23.3501 82.714 23.3501 83.694V85.122H20.3681V83.652C20.3681 83.176 20.3401 82.742 20.2841 82.35C20.2421 81.958 20.1091 81.65 19.8851 81.426C19.6751 81.188 19.3041 81.069 18.7721 81.069C18.2401 81.069 17.8481 81.195 17.5961 81.447C17.3581 81.685 17.2041 82.014 17.1341 82.434C17.0641 82.84 17.0291 83.302 17.0291 83.82V91.212C17.0291 91.828 17.0781 92.339 17.1761 92.745C17.2741 93.137 17.4491 93.438 17.7011 93.648C17.9671 93.844 18.3241 93.942 18.7721 93.942C19.2901 93.942 19.6541 93.823 19.8641 93.585C20.0881 93.333 20.2281 93.004 20.2841 92.598C20.3401 92.192 20.3681 91.737 20.3681 91.233V89.7H23.3501V91.065C23.3501 92.073 23.2171 92.969 22.9511 93.753C22.6851 94.523 22.2161 95.132 21.5441 95.58C20.8861 96.014 19.9551 96.231 18.7511 96.231ZM27.6349 96V81.279H24.9259V78.99H33.4099V81.279H30.7429V96H27.6349ZM35.3774 96V78.99H40.3754C41.3974 78.99 42.2234 79.179 42.8534 79.557C43.4974 79.935 43.9664 80.488 44.2604 81.216C44.5684 81.93 44.7224 82.798 44.7224 83.82C44.7224 84.926 44.5334 85.822 44.1554 86.508C43.7774 87.18 43.2454 87.67 42.5594 87.978C41.8874 88.286 41.0894 88.44 40.1654 88.44H38.4854V96H35.3774ZM38.4854 86.256H39.6614C40.2214 86.256 40.6554 86.179 40.9634 86.025C41.2854 85.857 41.5024 85.598 41.6144 85.248C41.7404 84.884 41.8034 84.401 41.8034 83.799C41.8034 83.183 41.7544 82.686 41.6564 82.308C41.5724 81.916 41.3764 81.629 41.0684 81.447C40.7744 81.265 40.3054 81.174 39.6614 81.174H38.4854V86.256ZM51.4916 96.231C50.2876 96.231 49.3286 96.007 48.6146 95.559C47.9006 95.111 47.3896 94.467 47.0816 93.627C46.7736 92.787 46.6196 91.793 46.6196 90.645V84.282C46.6196 83.134 46.7736 82.154 47.0816 81.342C47.3896 80.516 47.9006 79.886 48.6146 79.452C49.3286 79.018 50.2876 78.801 51.4916 78.801C52.7236 78.801 53.6896 79.018 54.3896 79.452C55.1036 79.886 55.6146 80.516 55.9226 81.342C56.2446 82.154 56.4056 83.134 56.4056 84.282V90.666C56.4056 91.8 56.2446 92.787 55.9226 93.627C55.6146 94.453 55.1036 95.097 54.3896 95.559C53.6896 96.007 52.7236 96.231 51.4916 96.231ZM51.4916 93.942C52.0096 93.942 52.3876 93.83 52.6256 93.606C52.8776 93.382 53.0456 93.074 53.1296 92.682C53.2136 92.29 53.2556 91.863 53.2556 91.401V83.568C53.2556 83.092 53.2136 82.665 53.1296 82.287C53.0456 81.909 52.8776 81.615 52.6256 81.405C52.3876 81.181 52.0096 81.069 51.4916 81.069C51.0016 81.069 50.6306 81.181 50.3786 81.405C50.1266 81.615 49.9586 81.909 49.8746 82.287C49.7906 82.665 49.7486 83.092 49.7486 83.568V91.401C49.7486 91.863 49.7836 92.29 49.8536 92.682C49.9376 93.074 50.1056 93.382 50.3576 93.606C50.6096 93.83 50.9876 93.942 51.4916 93.942ZM59.1666 96V78.99H61.7076V89.721L66.3696 78.99H68.4486V96H65.8866V85.101L61.2036 96H59.1666ZM73.1811 96V81.279H70.4721V78.99H78.9561V81.279H76.2891V96H73.1811ZM80.9236 96V78.99H88.0636V81.174H84.0316V86.067H87.2026V88.23H84.0316V93.858H88.1056V96H80.9236ZM89.15 96V93.774C89.542 93.788 89.871 93.767 90.137 93.711C90.417 93.641 90.648 93.494 90.83 93.27C91.026 93.046 91.187 92.703 91.313 92.241C91.439 91.765 91.544 91.128 91.628 90.33C91.712 89.532 91.803 88.517 91.901 87.285L92.447 78.99H100.721V96H97.634V81.321H95.198L94.82 87.663C94.736 88.909 94.638 90.008 94.526 90.96C94.428 91.912 94.267 92.724 94.043 93.396C93.833 94.054 93.532 94.586 93.14 94.992C92.748 95.398 92.23 95.685 91.586 95.853C90.942 96.007 90.13 96.056 89.15 96ZM103.81 96V78.99H106.897V86.13H107.653C108.801 86.13 109.76 86.291 110.53 86.613C111.3 86.921 111.881 87.439 112.273 88.167C112.665 88.881 112.861 89.847 112.861 91.065C112.861 92.017 112.742 92.815 112.504 93.459C112.266 94.089 111.909 94.593 111.433 94.971C110.971 95.349 110.411 95.615 109.753 95.769C109.095 95.923 108.353 96 107.527 96H103.81ZM106.897 93.9H107.527C108.129 93.9 108.605 93.816 108.955 93.648C109.319 93.48 109.585 93.186 109.753 92.766C109.921 92.332 110.005 91.744 110.005 91.002C109.991 90.12 109.809 89.448 109.459 88.986C109.123 88.524 108.465 88.293 107.485 88.293H106.897V93.9ZM119.82 96.231C118.574 96.231 117.594 95.986 116.88 95.496C116.18 95.006 115.69 94.341 115.41 93.501C115.13 92.647 114.99 91.667 114.99 90.561V84.492C114.99 83.33 115.13 82.322 115.41 81.468C115.69 80.614 116.18 79.956 116.88 79.494C117.594 79.032 118.574 78.801 119.82 78.801C120.996 78.801 121.913 79.004 122.571 79.41C123.243 79.802 123.719 80.369 123.999 81.111C124.279 81.853 124.419 82.714 124.419 83.694V85.122H121.437V83.652C121.437 83.176 121.409 82.742 121.353 82.35C121.311 81.958 121.178 81.65 120.954 81.426C120.744 81.188 120.373 81.069 119.841 81.069C119.309 81.069 118.917 81.195 118.665 81.447C118.427 81.685 118.273 82.014 118.203 82.434C118.133 82.84 118.098 83.302 118.098 83.82V91.212C118.098 91.828 118.147 92.339 118.245 92.745C118.343 93.137 118.518 93.438 118.77 93.648C119.036 93.844 119.393 93.942 119.841 93.942C120.359 93.942 120.723 93.823 120.933 93.585C121.157 93.333 121.297 93.004 121.353 92.598C121.409 92.192 121.437 91.737 121.437 91.233V89.7H124.419V91.065C124.419 92.073 124.286 92.969 124.02 93.753C123.754 94.523 123.285 95.132 122.613 95.58C121.955 96.014 121.024 96.231 119.82 96.231ZM128.704 96V81.279H125.995V78.99H134.479V81.279H131.812V96H128.704ZM136.446 96V78.99H140.625C141.381 78.99 142.06 79.06 142.662 79.2C143.278 79.34 143.803 79.578 144.237 79.914C144.685 80.236 145.028 80.677 145.266 81.237C145.504 81.797 145.623 82.504 145.623 83.358C145.623 84.044 145.525 84.632 145.329 85.122C145.147 85.612 144.874 86.004 144.51 86.298C144.146 86.578 143.691 86.767 143.145 86.865C143.817 86.977 144.37 87.215 144.804 87.579C145.252 87.929 145.581 88.391 145.791 88.965C146.015 89.539 146.127 90.232 146.127 91.044C146.127 91.856 146.022 92.577 145.812 93.207C145.616 93.823 145.315 94.341 144.909 94.761C144.517 95.167 144.02 95.475 143.418 95.685C142.83 95.895 142.137 96 141.339 96H136.446ZM139.554 93.816H140.73C141.668 93.816 142.305 93.592 142.641 93.144C142.977 92.682 143.145 91.975 143.145 91.023C143.145 90.337 143.061 89.784 142.893 89.364C142.739 88.93 142.473 88.608 142.095 88.398C141.731 88.188 141.241 88.083 140.625 88.083H139.554V93.816ZM139.554 85.941H140.604C141.22 85.941 141.696 85.85 142.032 85.668C142.368 85.486 142.599 85.206 142.725 84.828C142.865 84.45 142.935 83.974 142.935 83.4C142.935 82.798 142.83 82.336 142.62 82.014C142.424 81.678 142.123 81.454 141.717 81.342C141.311 81.216 140.793 81.153 140.163 81.153H139.554V85.941ZM153.176 96.231C151.972 96.231 151.013 96.007 150.299 95.559C149.585 95.111 149.074 94.467 148.766 93.627C148.458 92.787 148.304 91.793 148.304 90.645V84.282C148.304 83.134 148.458 82.154 148.766 81.342C149.074 80.516 149.585 79.886 150.299 79.452C151.013 79.018 151.972 78.801 153.176 78.801C154.408 78.801 155.374 79.018 156.074 79.452C156.788 79.886 157.299 80.516 157.607 81.342C157.929 82.154 158.09 83.134 158.09 84.282V90.666C158.09 91.8 157.929 92.787 157.607 93.627C157.299 94.453 156.788 95.097 156.074 95.559C155.374 96.007 154.408 96.231 153.176 96.231ZM153.176 93.942C153.694 93.942 154.072 93.83 154.31 93.606C154.562 93.382 154.73 93.074 154.814 92.682C154.898 92.29 154.94 91.863 154.94 91.401V83.568C154.94 83.092 154.898 82.665 154.814 82.287C154.73 81.909 154.562 81.615 154.31 81.405C154.072 81.181 153.694 81.069 153.176 81.069C152.686 81.069 152.315 81.181 152.063 81.405C151.811 81.615 151.643 81.909 151.559 82.287C151.475 82.665 151.433 83.092 151.433 83.568V91.401C151.433 91.863 151.468 92.29 151.538 92.682C151.622 93.074 151.79 93.382 152.042 93.606C152.294 93.83 152.672 93.942 153.176 93.942ZM6.18613 127.231C4.98213 127.231 4.02313 127.007 3.30913 126.559C2.59513 126.111 2.08413 125.467 1.77613 124.627C1.46813 123.787 1.31413 122.793 1.31413 121.645V115.282C1.31413 114.134 1.46813 113.154 1.77613 112.342C2.08413 111.516 2.59513 110.886 3.30913 110.452C4.02313 110.018 4.98213 109.801 6.18613 109.801C7.41813 109.801 8.38413 110.018 9.08413 110.452C9.79813 110.886 10.3091 111.516 10.6171 112.342C10.9391 113.154 11.1001 114.134 11.1001 115.282V121.666C11.1001 122.8 10.9391 123.787 10.6171 124.627C10.3091 125.453 9.79813 126.097 9.08413 126.559C8.38413 127.007 7.41813 127.231 6.18613 127.231ZM6.18613 124.942C6.70413 124.942 7.08213 124.83 7.32013 124.606C7.57213 124.382 7.74013 124.074 7.82413 123.682C7.90813 123.29 7.95013 122.863 7.95013 122.401V114.568C7.95013 114.092 7.90813 113.665 7.82413 113.287C7.74013 112.909 7.57213 112.615 7.32013 112.405C7.08213 112.181 6.70413 112.069 6.18613 112.069C5.69613 112.069 5.32513 112.181 5.07313 112.405C4.82113 112.615 4.65313 112.909 4.56913 113.287C4.48513 113.665 4.44313 114.092 4.44313 114.568V122.401C4.44313 122.863 4.47813 123.29 4.54813 123.682C4.63213 124.074 4.80013 124.382 5.05213 124.606C5.30413 124.83 5.68213 124.942 6.18613 124.942ZM18.6491 127.672V124.984C18.4951 124.998 18.3271 125.012 18.1451 125.026C17.9631 125.04 17.7881 125.047 17.6201 125.047C16.8081 125.047 16.0941 124.9 15.4781 124.606C14.8621 124.312 14.3791 123.85 14.0291 123.22C13.6931 122.576 13.5251 121.743 13.5251 120.721V116.017C13.5251 115.051 13.6931 114.246 14.0291 113.602C14.3791 112.958 14.8621 112.475 15.4781 112.153C16.1081 111.831 16.8431 111.67 17.6831 111.67C17.8511 111.67 18.0261 111.677 18.2081 111.691C18.3901 111.691 18.5371 111.698 18.6491 111.712V108.73H21.3581V111.712C21.4841 111.698 21.6311 111.691 21.7991 111.691C21.9811 111.677 22.1491 111.67 22.3031 111.67C23.1711 111.67 23.9131 111.831 24.5291 112.153C25.1591 112.475 25.6421 112.965 25.9781 113.623C26.3281 114.267 26.5031 115.065 26.5031 116.017V120.721C26.5031 121.743 26.3351 122.576 25.9991 123.22C25.6631 123.85 25.2081 124.319 24.6341 124.627C24.0741 124.921 23.4441 125.068 22.7441 125.068C22.5201 125.068 22.2891 125.061 22.0511 125.047C21.8271 125.033 21.5961 125.019 21.3581 125.005V127.672H18.6491ZM18.1451 123.157C18.2291 123.157 18.3201 123.157 18.4181 123.157C18.5161 123.143 18.5931 123.129 18.6491 123.115V113.56C18.5511 113.546 18.4461 113.539 18.3341 113.539C18.2361 113.525 18.1381 113.518 18.0401 113.518C17.6341 113.518 17.2981 113.602 17.0321 113.77C16.7801 113.938 16.5911 114.204 16.4651 114.568C16.3391 114.932 16.2761 115.408 16.2761 115.996V120.742C16.2761 121.316 16.3251 121.778 16.4231 122.128C16.5351 122.478 16.7241 122.737 16.9901 122.905C17.2561 123.073 17.6411 123.157 18.1451 123.157ZM21.9461 123.136C22.4081 123.136 22.7651 123.059 23.0171 122.905C23.2831 122.751 23.4651 122.499 23.5631 122.149C23.6751 121.785 23.7311 121.316 23.7311 120.742V115.996C23.7311 115.394 23.6751 114.911 23.5631 114.547C23.4511 114.183 23.2691 113.924 23.0171 113.77C22.7791 113.602 22.4431 113.518 22.0091 113.518C21.8971 113.518 21.7851 113.525 21.6731 113.539C21.5611 113.539 21.4561 113.546 21.3581 113.56V123.094C21.4421 123.108 21.5331 123.122 21.6311 123.136C21.7431 123.136 21.8481 123.136 21.9461 123.136ZM29.2313 127V109.99H31.7723V120.721L36.4343 109.99H38.5133V127H35.9513V116.101L31.2683 127H29.2313ZM46.1229 127.231C44.8769 127.231 43.8969 126.986 43.1829 126.496C42.4829 126.006 41.9929 125.341 41.7129 124.501C41.4329 123.647 41.2929 122.667 41.2929 121.561V115.492C41.2929 114.33 41.4329 113.322 41.7129 112.468C41.9929 111.614 42.4829 110.956 43.1829 110.494C43.8969 110.032 44.8769 109.801 46.1229 109.801C47.2989 109.801 48.2159 110.004 48.8739 110.41C49.5459 110.802 50.0219 111.369 50.3019 112.111C50.5819 112.853 50.7219 113.714 50.7219 114.694V116.122H47.7399V114.652C47.7399 114.176 47.7119 113.742 47.6559 113.35C47.6139 112.958 47.4809 112.65 47.2569 112.426C47.0469 112.188 46.6759 112.069 46.1439 112.069C45.6119 112.069 45.2199 112.195 44.9679 112.447C44.7299 112.685 44.5759 113.014 44.5059 113.434C44.4359 113.84 44.4009 114.302 44.4009 114.82V122.212C44.4009 122.828 44.4499 123.339 44.5479 123.745C44.6459 124.137 44.8209 124.438 45.0729 124.648C45.3389 124.844 45.6959 124.942 46.1439 124.942C46.6619 124.942 47.0259 124.823 47.2359 124.585C47.4599 124.333 47.5999 124.004 47.6559 123.598C47.7119 123.192 47.7399 122.737 47.7399 122.233V120.7H50.7219V122.065C50.7219 123.073 50.5889 123.969 50.3229 124.753C50.0569 125.523 49.5879 126.132 48.9159 126.58C48.2579 127.014 47.3269 127.231 46.1229 127.231ZM53.3477 127V109.99H56.4347V117.109H59.8997V109.99H63.0077V127H59.8997V119.314H56.4347V127H53.3477ZM66.0724 127V109.99H69.1594V117.13H69.9154C71.0774 117.13 72.0434 117.291 72.8134 117.613C73.5834 117.921 74.1644 118.439 74.5564 119.167C74.9484 119.881 75.1444 120.847 75.1444 122.065C75.1444 123.017 75.0184 123.815 74.7664 124.459C74.5284 125.089 74.1784 125.593 73.7164 125.971C73.2544 126.349 72.6944 126.615 72.0364 126.769C71.3784 126.923 70.6294 127 69.7894 127H66.0724ZM69.1594 124.9H69.8104C70.3984 124.9 70.8744 124.816 71.2384 124.648C71.6024 124.48 71.8684 124.186 72.0364 123.766C72.2044 123.332 72.2814 122.744 72.2674 122.002C72.2674 121.12 72.0924 120.448 71.7424 119.986C71.3924 119.524 70.7344 119.293 69.7684 119.293H69.1594V124.9ZM76.7404 127V109.99H79.8274V127H76.7404ZM81.7856 127L85.2086 117.97L81.8906 109.99H84.7886L86.9936 115.261L88.9256 109.99H91.6136L88.3376 118.558L91.8656 127H88.9676L86.5526 121.288L84.4526 127H81.7856ZM103.315 127.252C102.265 127.252 101.411 127.056 100.753 126.664C100.109 126.258 99.6396 125.691 99.3456 124.963C99.0516 124.221 98.9046 123.36 98.9046 122.38V121.792H101.803C101.803 121.862 101.803 121.96 101.803 122.086C101.803 122.198 101.803 122.31 101.803 122.422C101.817 123.206 101.929 123.801 102.139 124.207C102.349 124.613 102.755 124.816 103.357 124.816C103.791 124.816 104.113 124.711 104.323 124.501C104.547 124.291 104.694 123.99 104.764 123.598C104.848 123.192 104.89 122.709 104.89 122.149C104.89 121.281 104.729 120.595 104.407 120.091C104.099 119.573 103.476 119.293 102.538 119.251C102.496 119.237 102.426 119.23 102.328 119.23C102.244 119.23 102.146 119.23 102.034 119.23C101.922 119.23 101.817 119.23 101.719 119.23V117.172C101.803 117.172 101.887 117.172 101.971 117.172C102.055 117.172 102.139 117.172 102.223 117.172C102.321 117.172 102.398 117.172 102.454 117.172C103.406 117.13 104.05 116.878 104.386 116.416C104.722 115.954 104.89 115.282 104.89 114.4C104.89 113.686 104.764 113.126 104.512 112.72C104.274 112.314 103.84 112.111 103.21 112.111C102.622 112.111 102.202 112.321 101.95 112.741C101.712 113.161 101.572 113.714 101.53 114.4C101.53 114.456 101.53 114.561 101.53 114.715C101.53 114.855 101.53 115.002 101.53 115.156H98.6316V114.337C98.6316 113.371 98.8136 112.552 99.1776 111.88C99.5416 111.194 100.06 110.676 100.732 110.326C101.418 109.962 102.237 109.78 103.189 109.78C104.155 109.78 104.974 109.962 105.646 110.326C106.332 110.676 106.857 111.187 107.221 111.859C107.585 112.517 107.767 113.329 107.767 114.295C107.767 115.303 107.55 116.136 107.116 116.794C106.696 117.452 106.164 117.872 105.52 118.054C105.954 118.222 106.339 118.474 106.675 118.81C107.025 119.132 107.291 119.566 107.473 120.112C107.669 120.644 107.767 121.309 107.767 122.107C107.767 123.129 107.62 124.032 107.326 124.816C107.032 125.586 106.556 126.188 105.898 126.622C105.254 127.042 104.393 127.252 103.315 127.252ZM109.319 130.381V124.795H109.928C110.208 124.641 110.474 124.438 110.726 124.186C110.992 123.92 111.23 123.57 111.44 123.136C111.65 122.702 111.839 122.149 112.007 121.477C112.189 120.791 112.343 119.958 112.469 118.978C112.609 117.998 112.714 116.836 112.784 115.492L113.162 109.99H120.68V124.795H122.465V130.381H120.302L120.113 127H111.734L111.524 130.381H109.319ZM112.826 124.795H117.74V112.216H115.598L115.409 115.975C115.353 117.319 115.262 118.46 115.136 119.398C115.01 120.322 114.863 121.092 114.695 121.708C114.527 122.31 114.338 122.8 114.128 123.178C113.932 123.556 113.722 123.864 113.498 124.102C113.274 124.34 113.05 124.571 112.826 124.795ZM123.727 127L127.129 109.99H130.447L133.849 127H130.972L130.3 123.073H127.339L126.646 127H123.727ZM127.654 121.099H129.964L128.809 113.959L127.654 121.099ZM136.022 127V109.99H139.109V117.109H142.574V109.99H145.682V127H142.574V119.314H139.109V127H136.022ZM148.747 127V109.99H151.288V120.721L155.95 109.99H158.029V127H155.467V116.101L150.784 127H148.747ZM161.102 127V109.99H163.643V120.721L168.305 109.99H170.384V127H167.822V116.101L163.139 127H161.102ZM165.995 108.646C164.987 108.646 164.224 108.373 163.706 107.827C163.202 107.267 162.95 106.518 162.95 105.58H164.588C164.588 106.084 164.693 106.469 164.903 106.735C165.113 107.001 165.477 107.134 165.995 107.134C166.499 107.134 166.856 107.001 167.066 106.735C167.276 106.455 167.381 106.07 167.381 105.58H169.019C169.019 106.518 168.76 107.267 168.242 107.827C167.738 108.373 166.989 108.646 165.995 108.646Z" fill="black"/>
<path d="M81.875 36H78.125C77.4688 36 77 36.5625 77 37.125V40.875C77 41.5312 77.4688 42 78.125 42H81.875C82.4375 42 83 41.5312 83 40.875V37.125C83 36.5625 82.4375 36 81.875 36ZM81.875 18H78.125C77.4688 18 77 18.5625 77 19.125V22.875C77 23.5312 77.4688 24 78.125 24H81.875C82.4375 24 83 23.5312 83 22.875V19.125C83 18.5625 82.4375 18 81.875 18ZM72.875 18H69.125C68.4688 18 68 18.5625 68 19.125V22.875C68 23.5312 68.4688 24 69.125 24H72.875C73.4375 24 74 23.5312 74 22.875V19.125C74 18.5625 73.4375 18 72.875 18ZM72.875 36H69.125C68.4688 36 68 36.5625 68 37.125V40.875C68 41.5312 68.4688 42 69.125 42H72.875C73.4375 42 74 41.5312 74 40.875V37.125C74 36.5625 73.4375 36 72.875 36ZM72.875 27H69.125C68.4688 27 68 27.5625 68 28.125V31.875C68 32.5312 68.4688 33 69.125 33H72.875C73.4375 33 74 32.5312 74 31.875V28.125C74 27.5625 73.4375 27 72.875 27ZM81.875 27H78.125C77.4688 27 77 27.5625 77 28.125V31.875C77 32.5312 77.4688 33 78.125 33H81.875C82.4375 33 83 32.5312 83 31.875V28.125C83 27.5625 82.4375 27 81.875 27ZM108.875 36H105.125C104.469 36 104 36.5625 104 37.125V40.875C104 41.5312 104.469 42 105.125 42H108.875C109.438 42 110 41.5312 110 40.875V37.125C110 36.5625 109.438 36 108.875 36ZM108.875 27H105.125C104.469 27 104 27.5625 104 28.125V31.875C104 32.5312 104.469 33 105.125 33H108.875C109.438 33 110 32.5312 110 31.875V28.125C110 27.5625 109.438 27 108.875 27ZM116.75 18H107V2.25C107 1.03125 105.969 0 104.75 0H85.25C83.9375 0 83 1.03125 83 2.25V9H80V1.5C80 0.75 79.25 0 78.5 0H77C76.1562 0 75.5 0.75 75.5 1.5V9H69.5V1.5C69.5 0.75 68.75 0 68 0H66.5C65.6562 0 65 0.75 65 1.5V9H61.25C59.9375 9 59 10.0312 59 11.25V46.5C59 47.3438 59.6562 48 60.5 48H62C62.75 48 63.5 47.3438 63.5 46.5V13.5H87.5V4.5H102.5V22.5H114.5V46.5C114.5 47.3438 115.156 48 116 48H117.5C118.25 48 119 47.3438 119 46.5V20.25C119 19.0312 117.969 18 116.75 18ZM96.875 9H93.125C92.4688 9 92 9.5625 92 10.125V13.875C92 14.5312 92.4688 15 93.125 15H96.875C97.4375 15 98 14.5312 98 13.875V10.125C98 9.5625 97.4375 9 96.875 9ZM96.875 27H93.125C92.4688 27 92 27.5625 92 28.125V31.875C92 32.5312 92.4688 33 93.125 33H96.875C97.4375 33 98 32.5312 98 31.875V28.125C98 27.5625 97.4375 27 96.875 27ZM96.875 18H93.125C92.4688 18 92 18.5625 92 19.125V22.875C92 23.5312 92.4688 24 93.125 24H96.875C97.4375 24 98 23.5312 98 22.875V19.125C98 18.5625 97.4375 18 96.875 18Z" fill="#F7654A"/>
</svg>
