<svg width="255" height="193" viewBox="0 0 255 193" fill="none" xmlns="http://www.w3.org/2000/svg">
<path d="M82.8377 96V79.176H79.7417V76.56H89.4377V79.176H86.3897V96H82.8377ZM91.2062 96V76.56H99.3662V79.056H94.7582V84.648H98.3822V87.12H94.7582V93.552H99.4142V96H91.2062ZM100.128 96V93.456C100.576 93.472 100.952 93.448 101.256 93.384C101.576 93.304 101.84 93.136 102.048 92.88C102.272 92.624 102.456 92.232 102.6 91.704C102.744 91.16 102.864 90.432 102.96 89.52C103.056 88.608 103.16 87.448 103.272 86.04L103.896 76.56H113.352V96H109.824V79.224H107.04L106.608 86.472C106.512 87.896 106.4 89.152 106.272 90.24C106.16 91.328 105.976 92.256 105.72 93.024C105.48 93.776 105.136 94.384 104.688 94.848C104.24 95.312 103.648 95.64 102.912 95.832C102.176 96.008 101.248 96.064 100.128 96ZM116.355 96V76.56H124.515V79.056H119.907V84.648H123.531V87.12H119.907V93.552H124.563V96H116.355ZM132.14 96.768V93.696C131.964 93.712 131.772 93.728 131.564 93.744C131.356 93.76 131.156 93.768 130.964 93.768C130.036 93.768 129.22 93.6 128.516 93.264C127.812 92.928 127.26 92.4 126.86 91.68C126.476 90.944 126.284 89.992 126.284 88.824V83.448C126.284 82.344 126.476 81.424 126.86 80.688C127.26 79.952 127.812 79.4 128.516 79.032C129.236 78.664 130.076 78.48 131.036 78.48C131.228 78.48 131.428 78.488 131.636 78.504C131.844 78.504 132.012 78.512 132.14 78.528V75.12H135.236V78.528C135.38 78.512 135.548 78.504 135.74 78.504C135.948 78.488 136.14 78.48 136.316 78.48C137.308 78.48 138.156 78.664 138.86 79.032C139.58 79.4 140.132 79.96 140.516 80.712C140.916 81.448 141.116 82.36 141.116 83.448V88.824C141.116 89.992 140.924 90.944 140.54 91.68C140.156 92.4 139.636 92.936 138.98 93.288C138.34 93.624 137.62 93.792 136.82 93.792C136.564 93.792 136.3 93.784 136.028 93.768C135.772 93.752 135.508 93.736 135.236 93.72V96.768H132.14ZM131.564 91.608C131.66 91.608 131.764 91.608 131.876 91.608C131.988 91.592 132.076 91.576 132.14 91.56V80.64C132.028 80.624 131.908 80.616 131.78 80.616C131.668 80.6 131.556 80.592 131.444 80.592C130.98 80.592 130.596 80.688 130.292 80.88C130.004 81.072 129.788 81.376 129.644 81.792C129.5 82.208 129.428 82.752 129.428 83.424V88.848C129.428 89.504 129.484 90.032 129.596 90.432C129.724 90.832 129.94 91.128 130.244 91.32C130.548 91.512 130.988 91.608 131.564 91.608ZM135.908 91.584C136.436 91.584 136.844 91.496 137.132 91.32C137.436 91.144 137.644 90.856 137.756 90.456C137.884 90.04 137.948 89.504 137.948 88.848V83.424C137.948 82.736 137.884 82.184 137.756 81.768C137.628 81.352 137.42 81.056 137.132 80.88C136.86 80.688 136.476 80.592 135.98 80.592C135.852 80.592 135.724 80.6 135.596 80.616C135.468 80.616 135.348 80.624 135.236 80.64V91.536C135.332 91.552 135.436 91.568 135.548 91.584C135.676 91.584 135.796 91.584 135.908 91.584ZM148.986 96.264C147.61 96.264 146.514 96.008 145.698 95.496C144.882 94.984 144.298 94.248 143.946 93.288C143.594 92.328 143.418 91.192 143.418 89.88V82.608C143.418 81.296 143.594 80.176 143.946 79.248C144.298 78.304 144.882 77.584 145.698 77.088C146.514 76.592 147.61 76.344 148.986 76.344C150.394 76.344 151.498 76.592 152.298 77.088C153.114 77.584 153.698 78.304 154.05 79.248C154.418 80.176 154.602 81.296 154.602 82.608V89.904C154.602 91.2 154.418 92.328 154.05 93.288C153.698 94.232 153.114 94.968 152.298 95.496C151.498 96.008 150.394 96.264 148.986 96.264ZM148.986 93.648C149.578 93.648 150.01 93.52 150.282 93.264C150.57 93.008 150.762 92.656 150.858 92.208C150.954 91.76 151.002 91.272 151.002 90.744V81.792C151.002 81.248 150.954 80.76 150.858 80.328C150.762 79.896 150.57 79.56 150.282 79.32C150.01 79.064 149.578 78.936 148.986 78.936C148.426 78.936 148.002 79.064 147.714 79.32C147.426 79.56 147.234 79.896 147.138 80.328C147.042 80.76 146.994 81.248 146.994 81.792V90.744C146.994 91.272 147.034 91.76 147.114 92.208C147.21 92.656 147.402 93.008 147.69 93.264C147.978 93.52 148.41 93.648 148.986 93.648ZM157.278 96V76.56H160.806V84.696H164.766V76.56H168.318V96H164.766V87.216H160.806V96H157.278ZM171.364 86.088V82.872H174.484V86.088H171.364ZM171.364 94.2V90.984H174.484V94.2H171.364Z" fill="#999999"/>
<path d="M148.125 3.15625L139.312 1.1875C137.25 0.71875 135.188 1.75 134.438 3.625L130.312 13.1875C129.562 14.875 130.031 16.9375 131.531 18.1562L135.281 21.25C132.656 26.125 128.531 30.1562 123.656 32.875L120.562 29.125C119.344 27.625 117.281 27.1562 115.594 27.9062L106.031 31.9375C104.156 32.7812 103.125 34.8438 103.594 36.9062L105.562 45.7188C106.031 47.6875 107.812 49 109.781 49C132.75 49 151.5 30.4375 151.5 7.375C151.5 5.40625 150.094 3.625 148.125 3.15625ZM109.969 44.5L108 36.0625L117.188 32.125L122.438 38.5C131.719 34.0938 136.5 29.3125 140.906 20.0312L134.531 14.7812L138.469 5.59375L147 7.5625C146.906 27.9062 130.312 44.4062 109.969 44.5Z" fill="#F7654A"/>
<path d="M51.0848 150.264C47.7088 150.264 46.0208 148.328 46.0208 144.456C46.0208 142.184 46.7968 140.616 48.3488 139.752C47.7248 139.32 47.2288 138.744 46.8608 138.024C46.4928 137.288 46.3088 136.392 46.3088 135.336C46.3088 133.768 46.7168 132.544 47.5328 131.664C48.3488 130.784 49.5328 130.344 51.0848 130.344C52.6528 130.344 53.8368 130.784 54.6368 131.664C55.4368 132.544 55.8368 133.768 55.8368 135.336C55.8368 137.368 55.1648 138.84 53.8208 139.752C55.3728 140.632 56.1488 142.224 56.1488 144.528C56.1488 148.352 54.4608 150.264 51.0848 150.264ZM51.0848 138.456C52.1408 138.44 52.6688 137.408 52.6688 135.36C52.6688 134.592 52.5408 133.984 52.2848 133.536C52.0288 133.088 51.6288 132.864 51.0848 132.864C50.5408 132.864 50.1328 133.088 49.8608 133.536C49.5888 133.984 49.4528 134.584 49.4528 135.336C49.4528 137.4 49.9968 138.44 51.0848 138.456ZM51.0848 147.744C51.8208 147.744 52.3088 147.44 52.5488 146.832C52.7888 146.208 52.9088 145.392 52.9088 144.384C52.9088 143.456 52.7728 142.712 52.5008 142.152C52.2448 141.576 51.7728 141.28 51.0848 141.264C50.3968 141.28 49.9168 141.592 49.6448 142.2C49.3728 142.792 49.2368 143.576 49.2368 144.552C49.2368 145.496 49.3648 146.264 49.6208 146.856C49.8768 147.448 50.3648 147.744 51.0848 147.744ZM69.8992 154.464C68.3632 154.464 67.2112 153.92 66.4432 152.832C65.6752 151.744 65.1792 150.368 64.9552 148.704C64.7472 147.04 64.6432 144.96 64.6432 142.464C64.6432 139.888 64.7472 137.768 64.9552 136.104C65.1792 134.44 65.6672 133.072 66.4192 132C67.1872 130.912 68.3472 130.368 69.8992 130.368V132.624C69.2592 132.624 68.7792 133.04 68.4592 133.872C68.1552 134.704 67.9552 135.808 67.8592 137.184C67.7632 138.544 67.7152 140.304 67.7152 142.464C67.7152 144.608 67.7632 146.368 67.8592 147.744C67.9552 149.104 68.1632 150.184 68.4832 150.984C68.8032 151.8 69.2752 152.216 69.8992 152.232V154.464ZM76.8192 150.264C73.4432 150.264 71.7552 148.328 71.7552 144.456C71.7552 142.184 72.5312 140.616 74.0832 139.752C73.4592 139.32 72.9632 138.744 72.5952 138.024C72.2272 137.288 72.0432 136.392 72.0432 135.336C72.0432 133.768 72.4512 132.544 73.2672 131.664C74.0832 130.784 75.2672 130.344 76.8192 130.344C78.3872 130.344 79.5712 130.784 80.3712 131.664C81.1712 132.544 81.5712 133.768 81.5712 135.336C81.5712 137.368 80.8992 138.84 79.5552 139.752C81.1072 140.632 81.8832 142.224 81.8832 144.528C81.8832 148.352 80.1952 150.264 76.8192 150.264ZM76.8192 138.456C77.8752 138.44 78.4032 137.408 78.4032 135.36C78.4032 134.592 78.2752 133.984 78.0192 133.536C77.7632 133.088 77.3632 132.864 76.8192 132.864C76.2752 132.864 75.8672 133.088 75.5952 133.536C75.3232 133.984 75.1872 134.584 75.1872 135.336C75.1872 137.4 75.7312 138.44 76.8192 138.456ZM76.8192 147.744C77.5552 147.744 78.0432 147.44 78.2832 146.832C78.5232 146.208 78.6432 145.392 78.6432 144.384C78.6432 143.456 78.5072 142.712 78.2352 142.152C77.9792 141.576 77.5072 141.28 76.8192 141.264C76.1312 141.28 75.6512 141.592 75.3792 142.2C75.1072 142.792 74.9712 143.576 74.9712 144.552C74.9712 145.496 75.0992 146.264 75.3552 146.856C75.6112 147.448 76.0992 147.744 76.8192 147.744ZM86.5576 134.232C86.3976 134.344 85.8136 134.528 84.8056 134.784C83.9896 135.024 83.5736 135.152 83.5576 135.168V132.696C84.1976 132.472 84.8936 132.168 85.6456 131.784C86.4136 131.384 86.9736 130.976 87.3256 130.56H89.8936V150H86.5576V134.232ZM93.316 147.648L98.116 140.232C98.196 140.104 98.268 139.992 98.332 139.896C98.396 139.8 98.452 139.712 98.5 139.632C99.076 138.736 99.5 137.992 99.772 137.4C100.044 136.808 100.18 136.136 100.18 135.384C100.18 133.88 99.652 133.128 98.596 133.128C97.876 133.128 97.372 133.408 97.084 133.968C96.796 134.528 96.652 135.28 96.652 136.224V137.04H93.388V136.176C93.388 134.352 93.796 132.928 94.612 131.904C95.444 130.864 96.74 130.344 98.5 130.344C100.132 130.344 101.372 130.792 102.22 131.688C103.068 132.568 103.492 133.808 103.492 135.408C103.492 136.4 103.316 137.28 102.964 138.048C102.628 138.816 102.1 139.76 101.38 140.88L101.092 141.312L97.084 147.336H102.988V150H93.316V147.648ZM105.006 152.208C105.63 152.208 106.102 151.792 106.422 150.96C106.758 150.144 106.974 149.056 107.07 147.696C107.166 146.336 107.214 144.584 107.214 142.44C107.214 140.264 107.166 138.496 107.07 137.136C106.974 135.776 106.766 134.68 106.446 133.848C106.126 133.016 105.646 132.6 105.006 132.6V130.368C106.558 130.368 107.718 130.904 108.486 131.976C109.254 133.048 109.742 134.416 109.95 136.08C110.158 137.744 110.262 139.864 110.262 142.44C110.262 144.952 110.158 147.04 109.95 148.704C109.742 150.368 109.254 151.744 108.486 152.832C107.718 153.92 106.558 154.464 105.006 154.464V152.208ZM120.776 134.232C120.616 134.344 120.032 134.528 119.024 134.784C118.208 135.024 117.792 135.152 117.776 135.168V132.696C118.416 132.472 119.112 132.168 119.864 131.784C120.632 131.384 121.192 130.976 121.544 130.56H124.112V150H120.776V134.232ZM130.175 134.232C130.015 134.344 129.431 134.528 128.423 134.784C127.607 135.024 127.191 135.152 127.175 135.168V132.696C127.815 132.472 128.511 132.168 129.263 131.784C130.031 131.384 130.591 130.976 130.943 130.56H133.511V150H130.175V134.232ZM139.573 134.232C139.413 134.344 138.829 134.528 137.821 134.784C137.005 135.024 136.589 135.152 136.573 135.168V132.696C137.213 132.472 137.909 132.168 138.661 131.784C139.429 131.384 139.989 130.976 140.341 130.56H142.909V150H139.573V134.232ZM146.716 141.024H152.5V143.256H146.716V141.024ZM154.863 147.648L159.663 140.232C159.743 140.104 159.815 139.992 159.879 139.896C159.943 139.8 159.999 139.712 160.047 139.632C160.623 138.736 161.047 137.992 161.319 137.4C161.591 136.808 161.727 136.136 161.727 135.384C161.727 133.88 161.199 133.128 160.143 133.128C159.423 133.128 158.919 133.408 158.631 133.968C158.343 134.528 158.199 135.28 158.199 136.224V137.04H154.935V136.176C154.935 134.352 155.343 132.928 156.159 131.904C156.991 130.864 158.287 130.344 160.047 130.344C161.679 130.344 162.919 130.792 163.767 131.688C164.615 132.568 165.039 133.808 165.039 135.408C165.039 136.4 164.863 137.28 164.511 138.048C164.175 138.816 163.647 139.76 162.927 140.88L162.639 141.312L158.631 147.336H164.535V150H154.863V147.648ZM166.769 147.648L171.569 140.232C171.649 140.104 171.721 139.992 171.785 139.896C171.849 139.8 171.905 139.712 171.953 139.632C172.529 138.736 172.953 137.992 173.225 137.4C173.497 136.808 173.633 136.136 173.633 135.384C173.633 133.88 173.105 133.128 172.049 133.128C171.329 133.128 170.825 133.408 170.537 133.968C170.249 134.528 170.105 135.28 170.105 136.224V137.04H166.841V136.176C166.841 134.352 167.249 132.928 168.065 131.904C168.897 130.864 170.193 130.344 171.953 130.344C173.585 130.344 174.825 130.792 175.673 131.688C176.521 132.568 176.945 133.808 176.945 135.408C176.945 136.4 176.769 137.28 176.417 138.048C176.081 138.816 175.553 139.76 174.833 140.88L174.545 141.312L170.537 147.336H176.441V150H166.769V147.648ZM179.059 141.024H184.843V143.256H179.059V141.024ZM192.223 150.288C188.847 150.288 187.159 148.432 187.159 144.72V144.048H190.447V144.624C190.479 145.616 190.615 146.344 190.855 146.808C191.111 147.272 191.575 147.504 192.247 147.504C192.935 147.504 193.399 147.264 193.639 146.784C193.879 146.288 193.999 145.512 193.999 144.456C193.999 143.4 193.831 142.6 193.495 142.056C193.159 141.512 192.567 141.216 191.719 141.168H191.167V138.504H191.671C192.535 138.488 193.135 138.256 193.471 137.808C193.823 137.36 193.999 136.624 193.999 135.6C193.999 134.72 193.863 134.064 193.591 133.632C193.335 133.2 192.871 132.984 192.199 132.984C191.543 132.984 191.095 133.216 190.855 133.68C190.615 134.144 190.479 134.832 190.447 135.744V136.44H187.159V135.528C187.159 133.864 187.591 132.584 188.455 131.688C189.335 130.776 190.583 130.32 192.199 130.32C193.847 130.32 195.103 130.768 195.967 131.664C196.847 132.544 197.287 133.808 197.287 135.456C197.287 136.592 197.047 137.536 196.567 138.288C196.103 139.024 195.487 139.504 194.719 139.728C195.519 140 196.143 140.52 196.591 141.288C197.055 142.04 197.287 143.072 197.287 144.384C197.287 146.24 196.879 147.688 196.063 148.728C195.263 149.768 193.983 150.288 192.223 150.288ZM204.129 150.288C200.753 150.288 199.065 148.432 199.065 144.72V144.048H202.353V144.624C202.385 145.616 202.521 146.344 202.761 146.808C203.017 147.272 203.481 147.504 204.153 147.504C204.841 147.504 205.305 147.264 205.545 146.784C205.785 146.288 205.905 145.512 205.905 144.456C205.905 143.4 205.737 142.6 205.401 142.056C205.065 141.512 204.473 141.216 203.625 141.168H203.073V138.504H203.577C204.441 138.488 205.041 138.256 205.377 137.808C205.729 137.36 205.905 136.624 205.905 135.6C205.905 134.72 205.769 134.064 205.497 133.632C205.241 133.2 204.777 132.984 204.105 132.984C203.449 132.984 203.001 133.216 202.761 133.68C202.521 134.144 202.385 134.832 202.353 135.744V136.44H199.065V135.528C199.065 133.864 199.497 132.584 200.361 131.688C201.241 130.776 202.489 130.32 204.105 130.32C205.753 130.32 207.009 130.768 207.873 131.664C208.753 132.544 209.193 133.808 209.193 135.456C209.193 136.592 208.953 137.536 208.473 138.288C208.009 139.024 207.393 139.504 206.625 139.728C207.425 140 208.049 140.52 208.497 141.288C208.961 142.04 209.193 143.072 209.193 144.384C209.193 146.24 208.785 147.688 207.969 148.728C207.169 149.768 205.889 150.288 204.129 150.288ZM51.0848 186.264C47.7088 186.264 46.0208 184.328 46.0208 180.456C46.0208 178.184 46.7968 176.616 48.3488 175.752C47.7248 175.32 47.2288 174.744 46.8608 174.024C46.4928 173.288 46.3088 172.392 46.3088 171.336C46.3088 169.768 46.7168 168.544 47.5328 167.664C48.3488 166.784 49.5328 166.344 51.0848 166.344C52.6528 166.344 53.8368 166.784 54.6368 167.664C55.4368 168.544 55.8368 169.768 55.8368 171.336C55.8368 173.368 55.1648 174.84 53.8208 175.752C55.3728 176.632 56.1488 178.224 56.1488 180.528C56.1488 184.352 54.4608 186.264 51.0848 186.264ZM51.0848 174.456C52.1408 174.44 52.6688 173.408 52.6688 171.36C52.6688 170.592 52.5408 169.984 52.2848 169.536C52.0288 169.088 51.6288 168.864 51.0848 168.864C50.5408 168.864 50.1328 169.088 49.8608 169.536C49.5888 169.984 49.4528 170.584 49.4528 171.336C49.4528 173.4 49.9968 174.44 51.0848 174.456ZM51.0848 183.744C51.8208 183.744 52.3088 183.44 52.5488 182.832C52.7888 182.208 52.9088 181.392 52.9088 180.384C52.9088 179.456 52.7728 178.712 52.5008 178.152C52.2448 177.576 51.7728 177.28 51.0848 177.264C50.3968 177.28 49.9168 177.592 49.6448 178.2C49.3728 178.792 49.2368 179.576 49.2368 180.552C49.2368 181.496 49.3648 182.264 49.6208 182.856C49.8768 183.448 50.3648 183.744 51.0848 183.744ZM69.8992 190.464C68.3632 190.464 67.2112 189.92 66.4432 188.832C65.6752 187.744 65.1792 186.368 64.9552 184.704C64.7472 183.04 64.6432 180.96 64.6432 178.464C64.6432 175.888 64.7472 173.768 64.9552 172.104C65.1792 170.44 65.6672 169.072 66.4192 168C67.1872 166.912 68.3472 166.368 69.8992 166.368V168.624C69.2592 168.624 68.7792 169.04 68.4592 169.872C68.1552 170.704 67.9552 171.808 67.8592 173.184C67.7632 174.544 67.7152 176.304 67.7152 178.464C67.7152 180.608 67.7632 182.368 67.8592 183.744C67.9552 185.104 68.1632 186.184 68.4832 186.984C68.8032 187.8 69.2752 188.216 69.8992 188.232V190.464ZM76.8192 186.264C73.4432 186.264 71.7552 184.328 71.7552 180.456C71.7552 178.184 72.5312 176.616 74.0832 175.752C73.4592 175.32 72.9632 174.744 72.5952 174.024C72.2272 173.288 72.0432 172.392 72.0432 171.336C72.0432 169.768 72.4512 168.544 73.2672 167.664C74.0832 166.784 75.2672 166.344 76.8192 166.344C78.3872 166.344 79.5712 166.784 80.3712 167.664C81.1712 168.544 81.5712 169.768 81.5712 171.336C81.5712 173.368 80.8992 174.84 79.5552 175.752C81.1072 176.632 81.8832 178.224 81.8832 180.528C81.8832 184.352 80.1952 186.264 76.8192 186.264ZM76.8192 174.456C77.8752 174.44 78.4032 173.408 78.4032 171.36C78.4032 170.592 78.2752 169.984 78.0192 169.536C77.7632 169.088 77.3632 168.864 76.8192 168.864C76.2752 168.864 75.8672 169.088 75.5952 169.536C75.3232 169.984 75.1872 170.584 75.1872 171.336C75.1872 173.4 75.7312 174.44 76.8192 174.456ZM76.8192 183.744C77.5552 183.744 78.0432 183.44 78.2832 182.832C78.5232 182.208 78.6432 181.392 78.6432 180.384C78.6432 179.456 78.5072 178.712 78.2352 178.152C77.9792 177.576 77.5072 177.28 76.8192 177.264C76.1312 177.28 75.6512 177.592 75.3792 178.2C75.1072 178.792 74.9712 179.576 74.9712 180.552C74.9712 181.496 75.0992 182.264 75.3552 182.856C75.6112 183.448 76.0992 183.744 76.8192 183.744ZM86.5576 170.232C86.3976 170.344 85.8136 170.528 84.8056 170.784C83.9896 171.024 83.5736 171.152 83.5576 171.168V168.696C84.1976 168.472 84.8936 168.168 85.6456 167.784C86.4136 167.384 86.9736 166.976 87.3256 166.56H89.8936V186H86.5576V170.232ZM93.316 183.648L98.116 176.232C98.196 176.104 98.268 175.992 98.332 175.896C98.396 175.8 98.452 175.712 98.5 175.632C99.076 174.736 99.5 173.992 99.772 173.4C100.044 172.808 100.18 172.136 100.18 171.384C100.18 169.88 99.652 169.128 98.596 169.128C97.876 169.128 97.372 169.408 97.084 169.968C96.796 170.528 96.652 171.28 96.652 172.224V173.04H93.388V172.176C93.388 170.352 93.796 168.928 94.612 167.904C95.444 166.864 96.74 166.344 98.5 166.344C100.132 166.344 101.372 166.792 102.22 167.688C103.068 168.568 103.492 169.808 103.492 171.408C103.492 172.4 103.316 173.28 102.964 174.048C102.628 174.816 102.1 175.76 101.38 176.88L101.092 177.312L97.084 183.336H102.988V186H93.316V183.648ZM105.006 188.208C105.63 188.208 106.102 187.792 106.422 186.96C106.758 186.144 106.974 185.056 107.07 183.696C107.166 182.336 107.214 180.584 107.214 178.44C107.214 176.264 107.166 174.496 107.07 173.136C106.974 171.776 106.766 170.68 106.446 169.848C106.126 169.016 105.646 168.6 105.006 168.6V166.368C106.558 166.368 107.718 166.904 108.486 167.976C109.254 169.048 109.742 170.416 109.95 172.08C110.158 173.744 110.262 175.864 110.262 178.44C110.262 180.952 110.158 183.04 109.95 184.704C109.742 186.368 109.254 187.744 108.486 188.832C107.718 189.92 106.558 190.464 105.006 190.464V188.208ZM120.776 170.232C120.616 170.344 120.032 170.528 119.024 170.784C118.208 171.024 117.792 171.152 117.776 171.168V168.696C118.416 168.472 119.112 168.168 119.864 167.784C120.632 167.384 121.192 166.976 121.544 166.56H124.112V186H120.776V170.232ZM130.175 170.232C130.015 170.344 129.431 170.528 128.423 170.784C127.607 171.024 127.191 171.152 127.175 171.168V168.696C127.815 168.472 128.511 168.168 129.263 167.784C130.031 167.384 130.591 166.976 130.943 166.56H133.511V186H130.175V170.232ZM139.573 170.232C139.413 170.344 138.829 170.528 137.821 170.784C137.005 171.024 136.589 171.152 136.573 171.168V168.696C137.213 168.472 137.909 168.168 138.661 167.784C139.429 167.384 139.989 166.976 140.341 166.56H142.909V186H139.573V170.232ZM146.716 177.024H152.5V179.256H146.716V177.024ZM154.863 183.648L159.663 176.232C159.743 176.104 159.815 175.992 159.879 175.896C159.943 175.8 159.999 175.712 160.047 175.632C160.623 174.736 161.047 173.992 161.319 173.4C161.591 172.808 161.727 172.136 161.727 171.384C161.727 169.88 161.199 169.128 160.143 169.128C159.423 169.128 158.919 169.408 158.631 169.968C158.343 170.528 158.199 171.28 158.199 172.224V173.04H154.935V172.176C154.935 170.352 155.343 168.928 156.159 167.904C156.991 166.864 158.287 166.344 160.047 166.344C161.679 166.344 162.919 166.792 163.767 167.688C164.615 168.568 165.039 169.808 165.039 171.408C165.039 172.4 164.863 173.28 164.511 174.048C164.175 174.816 163.647 175.76 162.927 176.88L162.639 177.312L158.631 183.336H164.535V186H154.863V183.648ZM166.769 183.648L171.569 176.232C171.649 176.104 171.721 175.992 171.785 175.896C171.849 175.8 171.905 175.712 171.953 175.632C172.529 174.736 172.953 173.992 173.225 173.4C173.497 172.808 173.633 172.136 173.633 171.384C173.633 169.88 173.105 169.128 172.049 169.128C171.329 169.128 170.825 169.408 170.537 169.968C170.249 170.528 170.105 171.28 170.105 172.224V173.04H166.841V172.176C166.841 170.352 167.249 168.928 168.065 167.904C168.897 166.864 170.193 166.344 171.953 166.344C173.585 166.344 174.825 166.792 175.673 167.688C176.521 168.568 176.945 169.808 176.945 171.408C176.945 172.4 176.769 173.28 176.417 174.048C176.081 174.816 175.553 175.76 174.833 176.88L174.545 177.312L170.537 183.336H176.441V186H166.769V183.648ZM179.059 177.024H184.843V179.256H179.059V177.024ZM192.223 186.288C188.847 186.288 187.159 184.432 187.159 180.72V180.048H190.447V180.624C190.479 181.616 190.615 182.344 190.855 182.808C191.111 183.272 191.575 183.504 192.247 183.504C192.935 183.504 193.399 183.264 193.639 182.784C193.879 182.288 193.999 181.512 193.999 180.456C193.999 179.4 193.831 178.6 193.495 178.056C193.159 177.512 192.567 177.216 191.719 177.168H191.167V174.504H191.671C192.535 174.488 193.135 174.256 193.471 173.808C193.823 173.36 193.999 172.624 193.999 171.6C193.999 170.72 193.863 170.064 193.591 169.632C193.335 169.2 192.871 168.984 192.199 168.984C191.543 168.984 191.095 169.216 190.855 169.68C190.615 170.144 190.479 170.832 190.447 171.744V172.44H187.159V171.528C187.159 169.864 187.591 168.584 188.455 167.688C189.335 166.776 190.583 166.32 192.199 166.32C193.847 166.32 195.103 166.768 195.967 167.664C196.847 168.544 197.287 169.808 197.287 171.456C197.287 172.592 197.047 173.536 196.567 174.288C196.103 175.024 195.487 175.504 194.719 175.728C195.519 176 196.143 176.52 196.591 177.288C197.055 178.04 197.287 179.072 197.287 180.384C197.287 182.24 196.879 183.688 196.063 184.728C195.263 185.768 193.983 186.288 192.223 186.288ZM204.129 186.288C200.753 186.288 199.065 184.432 199.065 180.72V180.048H202.353V180.624C202.385 181.616 202.521 182.344 202.761 182.808C203.017 183.272 203.481 183.504 204.153 183.504C204.841 183.504 205.305 183.264 205.545 182.784C205.785 182.288 205.905 181.512 205.905 180.456C205.905 179.4 205.737 178.6 205.401 178.056C205.065 177.512 204.473 177.216 203.625 177.168H203.073V174.504H203.577C204.441 174.488 205.041 174.256 205.377 173.808C205.729 173.36 205.905 172.624 205.905 171.6C205.905 170.72 205.769 170.064 205.497 169.632C205.241 169.2 204.777 168.984 204.105 168.984C203.449 168.984 203.001 169.216 202.761 169.68C202.521 170.144 202.385 170.832 202.353 171.744V172.44H199.065V171.528C199.065 169.864 199.497 168.584 200.361 167.688C201.241 166.776 202.489 166.32 204.105 166.32C205.753 166.32 207.009 166.768 207.873 167.664C208.753 168.544 209.193 169.808 209.193 171.456C209.193 172.592 208.953 173.536 208.473 174.288C208.009 175.024 207.393 175.504 206.625 175.728C207.425 176 208.049 176.52 208.497 177.288C208.961 178.04 209.193 179.072 209.193 180.384C209.193 182.24 208.785 183.688 207.969 184.728C207.169 185.768 205.889 186.288 204.129 186.288Z" fill="black"/>
</svg>
