<svg width="255" height="192" viewBox="0 0 255 192" fill="none" xmlns="http://www.w3.org/2000/svg">
<path d="M49.9093 95V75.56H54.6853C55.5493 75.56 56.3253 75.64 57.0133 75.8C57.7173 75.96 58.3173 76.232 58.8133 76.616C59.3253 76.984 59.7173 77.488 59.9893 78.128C60.2613 78.768 60.3973 79.576 60.3973 80.552C60.3973 81.336 60.2853 82.008 60.0613 82.568C59.8533 83.128 59.5413 83.576 59.1253 83.912C58.7093 84.232 58.1893 84.448 57.5653 84.56C58.3333 84.688 58.9653 84.96 59.4613 85.376C59.9733 85.776 60.3493 86.304 60.5893 86.96C60.8453 87.616 60.9733 88.408 60.9733 89.336C60.9733 90.264 60.8533 91.088 60.6133 91.808C60.3893 92.512 60.0453 93.104 59.5813 93.584C59.1333 94.048 58.5653 94.4 57.8773 94.64C57.2053 94.88 56.4133 95 55.5013 95H49.9093ZM53.4613 92.504H54.8053C55.8773 92.504 56.6053 92.248 56.9893 91.736C57.3733 91.208 57.5653 90.4 57.5653 89.312C57.5653 88.528 57.4693 87.896 57.2773 87.416C57.1013 86.92 56.7973 86.552 56.3653 86.312C55.9493 86.072 55.3893 85.952 54.6853 85.952H53.4613V92.504ZM53.4613 83.504H54.6613C55.3653 83.504 55.9093 83.4 56.2933 83.192C56.6773 82.984 56.9413 82.664 57.0853 82.232C57.2453 81.8 57.3253 81.256 57.3253 80.6C57.3253 79.912 57.2053 79.384 56.9653 79.016C56.7413 78.632 56.3973 78.376 55.9333 78.248C55.4693 78.104 54.8773 78.032 54.1573 78.032H53.4613V83.504ZM63.2687 95V75.56H68.9807C70.1487 75.56 71.0927 75.776 71.8127 76.208C72.5487 76.64 73.0847 77.272 73.4207 78.104C73.7727 78.92 73.9487 79.912 73.9487 81.08C73.9487 82.344 73.7327 83.368 73.3007 84.152C72.8687 84.92 72.2607 85.48 71.4767 85.832C70.7087 86.184 69.7967 86.36 68.7407 86.36H66.8207V95H63.2687ZM66.8207 83.864H68.1647C68.8047 83.864 69.3007 83.776 69.6527 83.6C70.0207 83.408 70.2687 83.112 70.3967 82.712C70.5407 82.296 70.6127 81.744 70.6127 81.056C70.6127 80.352 70.5567 79.784 70.4447 79.352C70.3487 78.904 70.1247 78.576 69.7727 78.368C69.4367 78.16 68.9007 78.056 68.1647 78.056H66.8207V83.864ZM75.9249 95V75.56H84.0849V78.056H79.4769V83.648H83.1009V86.12H79.4769V92.552H84.1329V95H75.9249ZM86.1426 95L86.4786 75.56H90.1506L92.9106 89.024L95.7906 75.56H99.3426L99.7026 95H97.0626L96.7746 81.488L94.0146 95H91.8786L89.0706 81.44L88.8066 95H86.1426ZM101.373 95L105.261 86.312C104.461 85.896 103.813 85.256 103.317 84.392C102.821 83.512 102.573 82.432 102.573 81.152C102.573 79.872 102.805 78.824 103.269 78.008C103.733 77.176 104.429 76.56 105.357 76.16C106.301 75.76 107.493 75.56 108.933 75.56H113.421V95H109.893V87.128H108.765C108.733 87.128 108.661 87.128 108.549 87.128C108.437 87.128 108.365 87.128 108.333 87.128L105.237 95H101.373ZM109.101 84.632H109.893V78.032H109.029C107.989 78.032 107.205 78.288 106.677 78.8C106.149 79.296 105.885 80.08 105.885 81.152C105.885 82.256 106.117 83.112 106.581 83.72C107.061 84.328 107.901 84.632 109.101 84.632ZM122.237 95V75.56H127.949C129.117 75.56 130.061 75.776 130.781 76.208C131.517 76.64 132.053 77.272 132.389 78.104C132.741 78.92 132.917 79.912 132.917 81.08C132.917 82.344 132.701 83.368 132.269 84.152C131.837 84.92 131.229 85.48 130.445 85.832C129.677 86.184 128.765 86.36 127.709 86.36H125.789V95H122.237ZM125.789 83.864H127.133C127.773 83.864 128.269 83.776 128.621 83.6C128.989 83.408 129.237 83.112 129.365 82.712C129.509 82.296 129.581 81.744 129.581 81.056C129.581 80.352 129.525 79.784 129.413 79.352C129.317 78.904 129.093 78.576 128.741 78.368C128.405 78.16 127.869 78.056 127.133 78.056H125.789V83.864ZM133.558 95L137.446 75.56H141.238L145.126 95H141.838L141.07 90.512H137.686L136.894 95H133.558ZM138.046 88.256H140.686L139.366 80.096L138.046 88.256ZM147.129 95V75.56H156.153V78.2H150.657V83.72H151.425C152.737 83.72 153.833 83.904 154.713 84.272C155.609 84.624 156.281 85.216 156.729 86.048C157.177 86.864 157.401 87.968 157.401 89.36C157.401 90.448 157.265 91.36 156.993 92.096C156.721 92.816 156.313 93.392 155.769 93.824C155.241 94.256 154.601 94.56 153.849 94.736C153.097 94.912 152.241 95 151.281 95H147.129ZM150.657 92.6H151.305C151.977 92.6 152.521 92.504 152.937 92.312C153.353 92.12 153.657 91.784 153.849 91.304C154.041 90.808 154.129 90.136 154.113 89.288C154.097 88.28 153.889 87.512 153.489 86.984C153.105 86.456 152.361 86.192 151.257 86.192H150.657V92.6ZM164.971 95.264C163.595 95.264 162.499 95.008 161.683 94.496C160.867 93.984 160.283 93.248 159.931 92.288C159.579 91.328 159.403 90.192 159.403 88.88V81.608C159.403 80.296 159.579 79.176 159.931 78.248C160.283 77.304 160.867 76.584 161.683 76.088C162.499 75.592 163.595 75.344 164.971 75.344C166.379 75.344 167.483 75.592 168.283 76.088C169.099 76.584 169.683 77.304 170.035 78.248C170.403 79.176 170.587 80.296 170.587 81.608V88.904C170.587 90.2 170.403 91.328 170.035 92.288C169.683 93.232 169.099 93.968 168.283 94.496C167.483 95.008 166.379 95.264 164.971 95.264ZM164.971 92.648C165.563 92.648 165.995 92.52 166.267 92.264C166.555 92.008 166.747 91.656 166.843 91.208C166.939 90.76 166.987 90.272 166.987 89.744V80.792C166.987 80.248 166.939 79.76 166.843 79.328C166.747 78.896 166.555 78.56 166.267 78.32C165.995 78.064 165.563 77.936 164.971 77.936C164.411 77.936 163.987 78.064 163.699 78.32C163.411 78.56 163.219 78.896 163.123 79.328C163.027 79.76 162.979 80.248 162.979 80.792V89.744C162.979 90.272 163.019 90.76 163.099 91.208C163.195 91.656 163.387 92.008 163.675 92.264C163.963 92.52 164.395 92.648 164.971 92.648ZM175.158 95V78.176H172.062V75.56H181.758V78.176H178.71V95H175.158ZM183.575 95V75.56H187.103V83.72H187.967C189.295 83.72 190.399 83.904 191.279 84.272C192.159 84.624 192.823 85.216 193.271 86.048C193.719 86.864 193.943 87.968 193.943 89.36C193.943 90.448 193.799 91.36 193.511 92.096C193.239 92.816 192.839 93.392 192.311 93.824C191.783 94.256 191.143 94.56 190.391 94.736C189.639 94.912 188.783 95 187.823 95H183.575ZM187.103 92.6H187.847C188.519 92.6 189.063 92.504 189.479 92.312C189.895 92.12 190.199 91.784 190.391 91.304C190.583 90.808 190.671 90.136 190.655 89.288C190.655 88.28 190.455 87.512 190.055 86.984C189.655 86.456 188.903 86.192 187.799 86.192H187.103V92.6ZM195.767 95V75.56H199.295V95H195.767ZM202.349 85.088V81.872H205.469V85.088H202.349ZM202.349 93.2V89.984H205.469V93.2H202.349Z" fill="#999999"/>
<path d="M127.5 0.75C114.656 0.75 104.25 11.1562 104.25 24C104.25 36.8438 114.656 47.25 127.5 47.25C140.344 47.25 150.75 36.8438 150.75 24C150.75 11.1562 140.344 0.75 127.5 0.75ZM127.5 42.75C117.094 42.75 108.75 34.4062 108.75 24C108.75 13.6875 117.094 5.25 127.5 5.25C137.812 5.25 146.25 13.6875 146.25 24C146.25 34.4062 137.812 42.75 127.5 42.75ZM133.219 33C133.781 33.375 134.438 33.2812 134.812 32.7188L136.594 30.375C136.969 29.8125 136.875 29.1562 136.312 28.7812L130.125 24.1875V10.875C130.125 10.3125 129.562 9.75 129 9.75H126C125.344 9.75 124.875 10.3125 124.875 10.875V26.3438C124.875 26.625 124.969 27 125.25 27.1875L133.219 33Z" fill="#F7654A"/>
<path d="M97.8156 129.56H109.024V149H105.52V132.08H101.32V149H97.8156V129.56ZM111.996 129.56H115.524V137.672H119.484V129.56H123.036V149H119.484V140.216H115.524V149H111.996V129.56ZM125.915 140.024H131.699V142.256H125.915V140.024ZM139.774 149.264C137.758 149.264 136.326 148.704 135.478 147.584C134.646 146.448 134.23 144.848 134.23 142.784V135.848C134.23 133.72 134.646 132.104 135.478 131C136.31 129.896 137.742 129.344 139.774 129.344C141.678 129.344 143.03 129.824 143.83 130.784C144.63 131.744 145.03 133.128 145.03 134.936V136.568H141.622V134.888C141.622 134.2 141.59 133.664 141.526 133.28C141.462 132.88 141.294 132.56 141.022 132.32C140.766 132.064 140.358 131.936 139.798 131.936C139.222 131.936 138.79 132.072 138.502 132.344C138.214 132.6 138.022 132.952 137.926 133.4C137.846 133.832 137.806 134.4 137.806 135.104V143.528C137.806 144.632 137.95 145.432 138.238 145.928C138.526 146.408 139.046 146.648 139.798 146.648C140.342 146.648 140.742 146.52 140.998 146.264C141.27 146.008 141.438 145.672 141.502 145.256C141.582 144.824 141.622 144.256 141.622 143.552V141.8H145.03V143.36C145.03 145.232 144.638 146.688 143.854 147.728C143.07 148.752 141.71 149.264 139.774 149.264ZM147.551 129.56H156.575V132.2H151.079V137.72H151.847C153.879 137.72 155.383 138.152 156.359 139.016C157.335 139.88 157.823 141.328 157.823 143.36C157.823 145.44 157.311 146.904 156.287 147.752C155.263 148.584 153.743 149 151.727 149H147.551V129.56ZM151.751 146.6C152.759 146.6 153.471 146.376 153.887 145.928C154.319 145.464 154.535 144.624 154.535 143.408C154.535 142.304 154.327 141.496 153.911 140.984C153.495 140.456 152.751 140.192 151.679 140.192H151.079V146.6H151.751ZM66.167 169.232C66.007 169.344 65.423 169.528 64.415 169.784C63.599 170.024 63.183 170.152 63.167 170.168V167.696C63.807 167.472 64.503 167.168 65.255 166.784C66.023 166.384 66.583 165.976 66.935 165.56H69.503V185H66.167V169.232ZM78.3494 185.288C76.7014 185.288 75.4454 184.776 74.5814 183.752C73.7174 182.728 73.2854 181.36 73.2854 179.648V171.032C73.2854 169.256 73.7014 167.864 74.5334 166.856C75.3654 165.848 76.6374 165.344 78.3494 165.344C80.0294 165.344 81.2934 165.856 82.1414 166.88C82.9894 167.888 83.4134 169.272 83.4134 171.032V179.648C83.4134 181.36 82.9814 182.728 82.1174 183.752C81.2534 184.776 79.9974 185.288 78.3494 185.288ZM78.3494 182.432C79.4854 182.432 80.0534 181.488 80.0534 179.6V171.08C80.0534 170.232 79.9334 169.544 79.6934 169.016C79.4694 168.472 79.0214 168.2 78.3494 168.2C77.6614 168.2 77.2054 168.472 76.9814 169.016C76.7574 169.544 76.6454 170.232 76.6454 171.08V179.6C76.6454 180.384 76.7654 181.056 77.0054 181.616C77.2614 182.16 77.7094 182.432 78.3494 182.432ZM86.2977 171.872H89.4177V175.088H86.2977V171.872ZM86.2977 179.984H89.4177V183.2H86.2977V179.984ZM96.9119 185.288C95.2639 185.288 94.0079 184.776 93.1439 183.752C92.2799 182.728 91.8479 181.36 91.8479 179.648V171.032C91.8479 169.256 92.2639 167.864 93.0959 166.856C93.9279 165.848 95.1999 165.344 96.9119 165.344C98.5919 165.344 99.8559 165.856 100.704 166.88C101.552 167.888 101.976 169.272 101.976 171.032V179.648C101.976 181.36 101.544 182.728 100.68 183.752C99.8159 184.776 98.5599 185.288 96.9119 185.288ZM96.9119 182.432C98.0479 182.432 98.6159 181.488 98.6159 179.6V171.08C98.6159 170.232 98.4959 169.544 98.2559 169.016C98.0319 168.472 97.5839 168.2 96.9119 168.2C96.2239 168.2 95.7679 168.472 95.5439 169.016C95.3199 169.544 95.2079 170.232 95.2079 171.08V179.6C95.2079 180.384 95.3279 181.056 95.5679 181.616C95.8239 182.16 96.2719 182.432 96.9119 182.432ZM109.732 185.288C108.084 185.288 106.828 184.776 105.964 183.752C105.1 182.728 104.668 181.36 104.668 179.648V171.032C104.668 169.256 105.084 167.864 105.916 166.856C106.748 165.848 108.02 165.344 109.732 165.344C111.412 165.344 112.676 165.856 113.524 166.88C114.372 167.888 114.796 169.272 114.796 171.032V179.648C114.796 181.36 114.364 182.728 113.5 183.752C112.636 184.776 111.38 185.288 109.732 185.288ZM109.732 182.432C110.868 182.432 111.436 181.488 111.436 179.6V171.08C111.436 170.232 111.316 169.544 111.076 169.016C110.852 168.472 110.404 168.2 109.732 168.2C109.044 168.2 108.588 168.472 108.364 169.016C108.14 169.544 108.028 170.232 108.028 171.08V179.6C108.028 180.384 108.148 181.056 108.388 181.616C108.644 182.16 109.092 182.432 109.732 182.432ZM123.348 176.024H129.132V178.256H123.348V176.024ZM137.332 182.648L142.132 175.232C142.212 175.104 142.284 174.992 142.348 174.896C142.412 174.8 142.468 174.712 142.516 174.632C143.092 173.736 143.516 172.992 143.788 172.4C144.06 171.808 144.196 171.136 144.196 170.384C144.196 168.88 143.668 168.128 142.612 168.128C141.892 168.128 141.388 168.408 141.1 168.968C140.812 169.528 140.668 170.28 140.668 171.224V172.04H137.404V171.176C137.404 169.352 137.812 167.928 138.628 166.904C139.46 165.864 140.756 165.344 142.516 165.344C144.148 165.344 145.388 165.792 146.236 166.688C147.084 167.568 147.508 168.808 147.508 170.408C147.508 171.4 147.332 172.28 146.98 173.048C146.644 173.816 146.116 174.76 145.396 175.88L145.108 176.312L141.1 182.336H147.004V185H137.332V182.648ZM154.662 185.288C153.014 185.288 151.758 184.776 150.894 183.752C150.03 182.728 149.598 181.36 149.598 179.648V171.032C149.598 169.256 150.014 167.864 150.846 166.856C151.678 165.848 152.95 165.344 154.662 165.344C156.342 165.344 157.606 165.856 158.454 166.88C159.302 167.888 159.726 169.272 159.726 171.032V179.648C159.726 181.36 159.294 182.728 158.43 183.752C157.566 184.776 156.31 185.288 154.662 185.288ZM154.662 182.432C155.798 182.432 156.366 181.488 156.366 179.6V171.08C156.366 170.232 156.246 169.544 156.006 169.016C155.782 168.472 155.334 168.2 154.662 168.2C153.974 168.2 153.518 168.472 153.294 169.016C153.07 169.544 152.958 170.232 152.958 171.08V179.6C152.958 180.384 153.078 181.056 153.318 181.616C153.574 182.16 154.022 182.432 154.662 182.432ZM162.61 171.872H165.73V175.088H162.61V171.872ZM162.61 179.984H165.73V183.2H162.61V179.984ZM173.224 185.288C171.576 185.288 170.32 184.776 169.456 183.752C168.592 182.728 168.16 181.36 168.16 179.648V171.032C168.16 169.256 168.576 167.864 169.408 166.856C170.24 165.848 171.512 165.344 173.224 165.344C174.904 165.344 176.168 165.856 177.016 166.88C177.864 167.888 178.288 169.272 178.288 171.032V179.648C178.288 181.36 177.856 182.728 176.992 183.752C176.128 184.776 174.872 185.288 173.224 185.288ZM173.224 182.432C174.36 182.432 174.928 181.488 174.928 179.6V171.08C174.928 170.232 174.808 169.544 174.568 169.016C174.344 168.472 173.896 168.2 173.224 168.2C172.536 168.2 172.08 168.472 171.856 169.016C171.632 169.544 171.52 170.232 171.52 171.08V179.6C171.52 180.384 171.64 181.056 171.88 181.616C172.136 182.16 172.584 182.432 173.224 182.432ZM186.045 185.288C184.397 185.288 183.141 184.776 182.277 183.752C181.413 182.728 180.981 181.36 180.981 179.648V171.032C180.981 169.256 181.397 167.864 182.229 166.856C183.061 165.848 184.333 165.344 186.045 165.344C187.725 165.344 188.989 165.856 189.837 166.88C190.685 167.888 191.109 169.272 191.109 171.032V179.648C191.109 181.36 190.677 182.728 189.813 183.752C188.949 184.776 187.693 185.288 186.045 185.288ZM186.045 182.432C187.181 182.432 187.749 181.488 187.749 179.6V171.08C187.749 170.232 187.629 169.544 187.389 169.016C187.165 168.472 186.717 168.2 186.045 168.2C185.357 168.2 184.901 168.472 184.677 169.016C184.453 169.544 184.341 170.232 184.341 171.08V179.6C184.341 180.384 184.461 181.056 184.701 181.616C184.957 182.16 185.405 182.432 186.045 182.432Z" fill="black"/>
</svg>
