<svg width="255" height="155" viewBox="0 0 255 155" fill="none" xmlns="http://www.w3.org/2000/svg">
<path d="M93.8781 74.56H102.038V77.056H97.4061V82.648H101.054V85.12H97.4061V91.576H102.086V94H93.8781V74.56ZM104.048 85.024H109.832V87.256H104.048V85.024ZM112.963 74.56H116.635L119.395 88.024L122.251 74.56H125.827L126.187 94H123.547L123.259 80.488L120.499 94H118.363L115.555 80.44L115.291 94H112.627L112.963 74.56ZM131.962 74.56H135.754L139.642 94H136.354L135.586 89.512H132.202L131.41 94H128.074L131.962 74.56ZM135.202 87.256L133.882 79.096L132.562 87.256H135.202ZM141.693 74.56H145.197V94H141.693V74.56ZM148.206 74.56H151.734V91.576H156.462V94H148.206V74.56ZM158.38 80.872H161.5V84.088H158.38V80.872ZM158.38 88.984H161.5V92.2H158.38V88.984Z" fill="#999999"/>
<path d="M147 5H108C105.469 5 103.5 7.0625 103.5 9.5V36.5C103.5 39.0312 105.469 41 108 41H147C149.438 41 151.5 39.0312 151.5 36.5V9.5C151.5 7.0625 149.438 5 147 5ZM147 9.5V13.3438C144.844 15.125 141.469 17.75 134.344 23.375C132.75 24.5938 129.656 27.5938 127.5 27.5C125.25 27.5938 122.156 24.5938 120.562 23.375C113.438 17.75 110.062 15.125 108 13.3438V9.5H147ZM108 36.5V19.1562C110.062 20.8438 113.156 23.2812 117.75 26.9375C119.812 28.5312 123.469 32.0938 127.5 32C131.438 32.0938 135 28.5312 137.156 26.9375C141.75 23.2812 144.844 20.8438 147 19.1562V36.5H108Z" fill="#F7654A"/>
<path d="M65.4155 148V128.56H68.9195V148H65.4155ZM71.9288 148V128.56H74.4008L79.1288 139.648V128.56H82.0568V148H79.7048L74.9528 136.384V148H71.9288ZM85.007 148V128.56H92.999V131.008H88.559V136.672H92.183V139.144H88.559V148H85.007ZM100.201 148.264C98.825 148.264 97.729 148.008 96.913 147.496C96.097 146.984 95.513 146.248 95.161 145.288C94.809 144.328 94.633 143.192 94.633 141.88V134.608C94.633 133.296 94.809 132.176 95.161 131.248C95.513 130.304 96.097 129.584 96.913 129.088C97.729 128.592 98.825 128.344 100.201 128.344C101.609 128.344 102.713 128.592 103.513 129.088C104.329 129.584 104.913 130.304 105.265 131.248C105.633 132.176 105.817 133.296 105.817 134.608V141.904C105.817 143.2 105.633 144.328 105.265 145.288C104.913 146.232 104.329 146.968 103.513 147.496C102.713 148.008 101.609 148.264 100.201 148.264ZM100.201 145.648C100.793 145.648 101.225 145.52 101.497 145.264C101.785 145.008 101.977 144.656 102.073 144.208C102.169 143.76 102.217 143.272 102.217 142.744V133.792C102.217 133.248 102.169 132.76 102.073 132.328C101.977 131.896 101.785 131.56 101.497 131.32C101.225 131.064 100.793 130.936 100.201 130.936C99.641 130.936 99.217 131.064 98.929 131.32C98.641 131.56 98.449 131.896 98.353 132.328C98.257 132.76 98.209 133.248 98.209 133.792V142.744C98.209 143.272 98.249 143.76 98.329 144.208C98.425 144.656 98.617 145.008 98.905 145.264C99.193 145.52 99.625 145.648 100.201 145.648ZM118.284 151.12C116.684 151.12 115.244 150.888 113.964 150.424C112.7 149.96 111.628 149.272 110.748 148.36C109.884 147.448 109.244 146.328 108.828 145C108.428 143.656 108.276 142.112 108.372 140.368C108.468 138.48 108.796 136.8 109.356 135.328C109.916 133.856 110.684 132.624 111.66 131.632C112.652 130.624 113.82 129.864 115.164 129.352C116.508 128.824 118.004 128.56 119.652 128.56C121.22 128.56 122.572 128.816 123.708 129.328C124.844 129.84 125.764 130.552 126.468 131.464C127.188 132.376 127.7 133.424 128.004 134.608C128.324 135.776 128.436 137.032 128.34 138.376C128.308 139.272 128.156 140.152 127.884 141.016C127.628 141.88 127.244 142.656 126.732 143.344C126.236 144.032 125.628 144.584 124.908 145C124.188 145.416 123.356 145.624 122.412 145.624C121.98 145.624 121.564 145.552 121.164 145.408C120.78 145.264 120.452 145.04 120.18 144.736C119.908 144.432 119.732 144.064 119.652 143.632C119.508 144.096 119.244 144.512 118.86 144.88C118.476 145.248 117.98 145.456 117.372 145.504C116.524 145.568 115.804 145.4 115.212 145C114.62 144.584 114.18 144.016 113.892 143.296C113.604 142.56 113.468 141.752 113.484 140.872C113.5 140.072 113.628 139.24 113.868 138.376C114.124 137.496 114.484 136.68 114.948 135.928C115.428 135.176 116.012 134.568 116.7 134.104C117.388 133.624 118.172 133.384 119.052 133.384C119.34 133.384 119.588 133.456 119.796 133.6C120.02 133.744 120.204 133.912 120.348 134.104C120.508 134.28 120.636 134.432 120.732 134.56L120.972 133.552H123.492L122.292 141.88C122.26 142.12 122.228 142.384 122.196 142.672C122.18 142.96 122.204 143.216 122.268 143.44C122.332 143.648 122.476 143.768 122.7 143.8C123.1 143.848 123.492 143.744 123.876 143.488C124.276 143.232 124.628 142.864 124.932 142.384C125.252 141.888 125.508 141.312 125.7 140.656C125.908 139.984 126.028 139.264 126.06 138.496C126.124 137.392 126.044 136.368 125.82 135.424C125.612 134.48 125.244 133.656 124.716 132.952C124.188 132.248 123.484 131.704 122.604 131.32C121.724 130.936 120.66 130.744 119.412 130.744C118.1 130.744 116.932 130.984 115.908 131.464C114.884 131.928 114.012 132.584 113.292 133.432C112.588 134.28 112.036 135.288 111.636 136.456C111.252 137.624 111.028 138.904 110.964 140.296C110.9 141.416 110.948 142.44 111.108 143.368C111.268 144.28 111.548 145.08 111.948 145.768C112.348 146.456 112.86 147.04 113.484 147.52C114.108 147.984 114.844 148.336 115.692 148.576C116.556 148.816 117.524 148.936 118.596 148.936C119.028 148.936 119.5 148.904 120.012 148.84C120.524 148.792 121.052 148.712 121.596 148.6C122.156 148.488 122.676 148.36 123.156 148.216L123.588 150.352C122.708 150.576 121.812 150.76 120.9 150.904C120.004 151.048 119.132 151.12 118.284 151.12ZM118.044 143.2C118.268 143.168 118.548 143.04 118.884 142.816C119.22 142.576 119.46 142.184 119.604 141.64L120.372 136.024C120.324 135.944 120.22 135.888 120.06 135.856C119.916 135.808 119.788 135.784 119.676 135.784C119.036 135.784 118.468 136.032 117.972 136.528C117.492 137.008 117.108 137.64 116.82 138.424C116.532 139.192 116.388 140.016 116.388 140.896C116.388 141.328 116.444 141.728 116.556 142.096C116.668 142.464 116.844 142.752 117.084 142.96C117.34 143.168 117.66 143.248 118.044 143.2ZM133.686 148L129.774 128.56H132.918L135.486 142.312L137.886 128.56H141.102L137.19 148H133.686ZM143.181 148V128.56H146.685V148H143.181ZM149.694 148V128.56H155.406C156.574 128.56 157.518 128.776 158.238 129.208C158.974 129.64 159.51 130.272 159.846 131.104C160.198 131.92 160.374 132.912 160.374 134.08C160.374 135.344 160.158 136.368 159.726 137.152C159.294 137.92 158.686 138.48 157.902 138.832C157.134 139.184 156.222 139.36 155.166 139.36H153.246V148H149.694ZM153.246 136.864H154.59C155.23 136.864 155.726 136.776 156.078 136.6C156.446 136.408 156.694 136.112 156.822 135.712C156.966 135.296 157.038 134.744 157.038 134.056C157.038 133.352 156.982 132.784 156.87 132.352C156.774 131.904 156.55 131.576 156.198 131.368C155.862 131.16 155.326 131.056 154.59 131.056H153.246V136.864ZM160.093 148V144.712H163.261V148H160.093ZM165.632 148V128.56H170.288C171.6 128.56 172.704 128.72 173.6 129.04C174.512 129.344 175.2 129.872 175.664 130.624C176.144 131.376 176.384 132.4 176.384 133.696C176.384 134.48 176.312 135.184 176.168 135.808C176.024 136.432 175.776 136.968 175.424 137.416C175.088 137.848 174.616 138.184 174.008 138.424L176.72 148H173.168L170.816 139.096H169.184V148H165.632ZM169.184 136.864H170.288C170.976 136.864 171.52 136.768 171.92 136.576C172.336 136.368 172.632 136.048 172.808 135.616C172.984 135.168 173.072 134.6 173.072 133.912C173.072 132.936 172.888 132.208 172.52 131.728C172.168 131.232 171.488 130.984 170.48 130.984H169.184V136.864ZM184.343 148.264C182.903 148.264 181.783 148 180.983 147.472C180.183 146.944 179.631 146.192 179.327 145.216C179.023 144.24 178.871 143.072 178.871 141.712V128.56H182.327V142.12C182.327 142.728 182.367 143.304 182.447 143.848C182.527 144.376 182.711 144.808 182.999 145.144C183.303 145.464 183.751 145.624 184.343 145.624C184.967 145.624 185.415 145.464 185.687 145.144C185.975 144.808 186.159 144.376 186.239 143.848C186.335 143.304 186.383 142.728 186.383 142.12V128.56H189.815V141.712C189.815 143.072 189.663 144.24 189.359 145.216C189.055 146.192 188.503 146.944 187.703 147.472C186.919 148 185.799 148.264 184.343 148.264Z" fill="#F7654A"/>
</svg>
