<svg width="255" height="192" viewBox="0 0 255 192" fill="none" xmlns="http://www.w3.org/2000/svg">
<path d="M92.9644 95L96.8524 75.56H100.644L104.532 95H101.244L100.476 90.512H97.0924L96.3004 95H92.9644ZM97.4524 88.256H100.092L98.7724 80.096L97.4524 88.256ZM105.383 98.864V92.48H106.079C106.399 92.304 106.703 92.072 106.991 91.784C107.295 91.48 107.567 91.08 107.807 90.584C108.047 90.088 108.263 89.456 108.455 88.688C108.663 87.904 108.839 86.952 108.983 85.832C109.143 84.712 109.263 83.384 109.343 81.848L109.775 75.56H118.367V92.48H120.407V98.864H117.935L117.719 95H108.143L107.903 98.864H105.383ZM109.391 92.48H115.007V78.104H112.559L112.343 82.4C112.279 83.936 112.175 85.24 112.031 86.312C111.887 87.368 111.719 88.248 111.527 88.952C111.335 89.64 111.119 90.2 110.879 90.632C110.655 91.064 110.415 91.416 110.159 91.688C109.903 91.96 109.647 92.224 109.391 92.48ZM122.355 95V75.56H128.067C129.235 75.56 130.179 75.776 130.899 76.208C131.635 76.64 132.171 77.272 132.507 78.104C132.859 78.92 133.035 79.912 133.035 81.08C133.035 82.344 132.819 83.368 132.387 84.152C131.955 84.92 131.347 85.48 130.563 85.832C129.795 86.184 128.883 86.36 127.827 86.36H125.907V95H122.355ZM125.907 83.864H127.251C127.891 83.864 128.387 83.776 128.739 83.6C129.107 83.408 129.355 83.112 129.483 82.712C129.627 82.296 129.699 81.744 129.699 81.056C129.699 80.352 129.643 79.784 129.531 79.352C129.435 78.904 129.211 78.576 128.859 78.368C128.523 78.16 127.987 78.056 127.251 78.056H125.907V83.864ZM135.011 95V75.56H143.171V78.056H138.563V83.648H142.187V86.12H138.563V92.552H143.219V95H135.011ZM150.509 95.264C149.085 95.264 147.965 94.984 147.149 94.424C146.349 93.864 145.789 93.104 145.469 92.144C145.149 91.168 144.989 90.048 144.989 88.784V81.848C144.989 80.52 145.149 79.368 145.469 78.392C145.789 77.416 146.349 76.664 147.149 76.136C147.965 75.608 149.085 75.344 150.509 75.344C151.853 75.344 152.901 75.576 153.653 76.04C154.421 76.488 154.965 77.136 155.285 77.984C155.605 78.832 155.765 79.816 155.765 80.936V82.568H152.357V80.888C152.357 80.344 152.325 79.848 152.261 79.4C152.213 78.952 152.061 78.6 151.805 78.344C151.565 78.072 151.141 77.936 150.533 77.936C149.925 77.936 149.477 78.08 149.189 78.368C148.917 78.64 148.741 79.016 148.661 79.496C148.581 79.96 148.541 80.488 148.541 81.08V89.528C148.541 90.232 148.597 90.816 148.709 91.28C148.821 91.728 149.021 92.072 149.309 92.312C149.613 92.536 150.021 92.648 150.533 92.648C151.125 92.648 151.541 92.512 151.781 92.24C152.037 91.952 152.197 91.576 152.261 91.112C152.325 90.648 152.357 90.128 152.357 89.552V87.8H155.765V89.36C155.765 90.512 155.613 91.536 155.309 92.432C155.005 93.312 154.469 94.008 153.701 94.52C152.949 95.016 151.885 95.264 150.509 95.264ZM158.309 85.088V81.872H161.429V85.088H158.309ZM158.309 93.2V89.984H161.429V93.2H158.309Z" fill="#999999"/>
<path d="M127.5 0C117.469 0 109.5 8.15625 109.5 18C109.5 24.75 111.656 26.8125 123.656 45.9375C125.438 48.75 129.469 48.75 131.25 45.9375C143.25 26.8125 145.5 24.75 145.5 18C145.5 8.0625 137.344 0 127.5 0ZM127.5 43.5C115.5 24.375 114 23.1562 114 18C114 10.5938 120 4.5 127.5 4.5C134.906 4.5 141 10.5938 141 18C141 23.1562 139.5 24.1875 127.5 43.5ZM120 18C120 22.2188 123.281 25.5 127.5 25.5C131.625 25.5 135 22.2188 135 18C135 13.875 131.625 10.5 127.5 10.5C123.281 10.5 120 13.875 120 18Z" fill="#F7654A"/>
<path d="M41.6783 152.408V149.936C42.4303 149.984 43.0463 149.968 43.5263 149.888C44.0223 149.808 44.3983 149.648 44.6543 149.408C44.9103 149.168 45.0623 148.848 45.1103 148.448C45.1583 148.032 45.1263 147.528 45.0143 146.936L40.9103 129.56H44.1983L45.8543 137.696L46.7422 143.36L47.4622 137.696L48.9023 129.56H52.2383L48.4703 147.296C48.2943 148.128 48.1103 148.84 47.9183 149.432C47.7423 150.04 47.5103 150.544 47.2223 150.944C46.9503 151.36 46.5823 151.68 46.1183 151.904C45.6543 152.128 45.0623 152.272 44.3423 152.336C43.6223 152.416 42.7343 152.44 41.6783 152.408ZM51.9638 149V146.456C52.4117 146.472 52.7878 146.448 53.0918 146.384C53.4118 146.304 53.6758 146.136 53.8838 145.88C54.1078 145.624 54.2918 145.232 54.4358 144.704C54.5798 144.16 54.6998 143.432 54.7958 142.52C54.8918 141.608 54.9958 140.448 55.1078 139.04L55.7318 129.56H65.1878V149H61.6598V132.224H58.8758L58.4438 139.472C58.3478 140.896 58.2358 142.152 58.1078 143.24C57.9958 144.328 57.8118 145.256 57.5558 146.024C57.3158 146.776 56.9718 147.384 56.5238 147.848C56.0758 148.312 55.4838 148.64 54.7478 148.832C54.0118 149.008 53.0838 149.064 51.9638 149ZM68.2386 149V129.56H71.1426V141.824L76.4706 129.56H78.8466V149H75.9186V136.544L70.5666 149H68.2386ZM92.9192 152.864L92.5352 149H81.8792V129.56H85.4072V146.552H89.7752V129.56H93.3032V146.552H95.5592V152.864H92.9192ZM96.5738 149L100.462 129.56H104.254L108.142 149H104.854L104.086 144.512H100.702L99.9098 149H96.5738ZM101.062 142.256H103.702L102.382 134.096L101.062 142.256ZM115.885 149L116.221 129.56H119.893L122.653 143.024L125.533 129.56H129.085L129.445 149H126.805L126.517 135.488L123.757 149H121.621L118.813 135.44L118.549 149H115.885ZM132.364 149V129.56H135.268V141.824L140.596 129.56H142.972V149H140.044V136.544L134.692 149H132.364ZM145.956 149V129.56H151.668C152.836 129.56 153.78 129.776 154.5 130.208C155.236 130.64 155.772 131.272 156.108 132.104C156.46 132.92 156.636 133.912 156.636 135.08C156.636 136.344 156.42 137.368 155.988 138.152C155.556 138.92 154.948 139.48 154.164 139.832C153.396 140.184 152.484 140.36 151.428 140.36H149.508V149H145.956ZM149.508 137.864H150.852C151.492 137.864 151.988 137.776 152.34 137.6C152.708 137.408 152.956 137.112 153.084 136.712C153.228 136.296 153.3 135.744 153.3 135.056C153.3 134.352 153.244 133.784 153.132 133.352C153.036 132.904 152.812 132.576 152.46 132.368C152.124 132.16 151.588 132.056 150.852 132.056H149.508V137.864ZM157.277 149L161.165 129.56H164.957L168.845 149H165.557L164.789 144.512H161.405L160.613 149H157.277ZM161.765 142.256H164.405L163.085 134.096L161.765 142.256ZM178.796 149V133.232C178.7 133.28 178.508 133.352 178.22 133.448C177.948 133.544 177.644 133.64 177.308 133.736C176.972 133.816 176.66 133.896 176.372 133.976C176.1 134.056 175.908 134.12 175.796 134.168V131.696C176.02 131.616 176.3 131.504 176.636 131.36C176.972 131.216 177.324 131.056 177.692 130.88C178.076 130.688 178.428 130.48 178.748 130.256C179.084 130.032 179.356 129.8 179.564 129.56H182.108V149H178.796ZM191.146 149V144.224H185.338V141.392L190.402 129.56H194.266V141.584H196.258V144.224H194.266V149H191.146ZM188.122 141.584H191.146V133.136L188.122 141.584ZM203.072 149.288C201.936 149.288 200.992 149.048 200.24 148.568C199.504 148.088 198.944 147.424 198.56 146.576C198.192 145.728 198.008 144.752 198.008 143.648V135.032C198.008 133.896 198.184 132.904 198.536 132.056C198.904 131.192 199.456 130.52 200.192 130.04C200.944 129.56 201.904 129.32 203.072 129.32C204.24 129.32 205.192 129.56 205.928 130.04C206.68 130.52 207.232 131.192 207.584 132.056C207.952 132.904 208.136 133.896 208.136 135.032V143.648C208.136 144.752 207.944 145.728 207.56 146.576C207.192 147.424 206.632 148.088 205.88 148.568C205.144 149.048 204.208 149.288 203.072 149.288ZM203.072 146.432C203.568 146.432 203.936 146.28 204.176 145.976C204.416 145.672 204.576 145.304 204.656 144.872C204.736 144.44 204.776 144.016 204.776 143.6V135.08C204.776 134.632 204.736 134.192 204.656 133.76C204.592 133.312 204.44 132.936 204.2 132.632C203.96 132.328 203.584 132.176 203.072 132.176C202.56 132.176 202.184 132.328 201.944 132.632C201.704 132.936 201.544 133.312 201.464 133.76C201.4 134.192 201.368 134.632 201.368 135.08V143.6C201.368 144.016 201.408 144.44 201.488 144.872C201.584 145.304 201.752 145.672 201.992 145.976C202.232 146.28 202.592 146.432 203.072 146.432ZM210.996 152.264L210.66 151.064C211.092 150.936 211.46 150.704 211.764 150.368C212.068 150.048 212.22 149.592 212.22 149H210.492V145.76H213.684V148.712C213.684 149.736 213.46 150.536 213.012 151.112C212.564 151.704 211.892 152.088 210.996 152.264ZM64.5878 185.264C63.2118 185.264 62.1158 185.008 61.2998 184.496C60.4838 183.984 59.8998 183.248 59.5478 182.288C59.1958 181.328 59.0198 180.192 59.0198 178.88V171.608C59.0198 170.296 59.1958 169.176 59.5478 168.248C59.8998 167.304 60.4838 166.584 61.2998 166.088C62.1158 165.592 63.2118 165.344 64.5878 165.344C65.9958 165.344 67.0998 165.592 67.8998 166.088C68.7158 166.584 69.2998 167.304 69.6518 168.248C70.0198 169.176 70.2038 170.296 70.2038 171.608V178.904C70.2038 180.2 70.0198 181.328 69.6518 182.288C69.2998 183.232 68.7158 183.968 67.8998 184.496C67.0998 185.008 65.9958 185.264 64.5878 185.264ZM64.5878 182.648C65.1798 182.648 65.6118 182.52 65.8838 182.264C66.1718 182.008 66.3638 181.656 66.4598 181.208C66.5558 180.76 66.6038 180.272 66.6038 179.744V170.792C66.6038 170.248 66.5558 169.76 66.4598 169.328C66.3638 168.896 66.1718 168.56 65.8838 168.32C65.6118 168.064 65.1798 167.936 64.5878 167.936C64.0278 167.936 63.6038 168.064 63.3158 168.32C63.0278 168.56 62.8358 168.896 62.7398 169.328C62.6438 169.76 62.5958 170.248 62.5958 170.792V179.744C62.5958 180.272 62.6358 180.76 62.7158 181.208C62.8118 181.656 63.0038 182.008 63.2918 182.264C63.5798 182.52 64.0118 182.648 64.5878 182.648ZM78.3512 185.768V182.696C78.1752 182.712 77.9832 182.728 77.7752 182.744C77.5672 182.76 77.3672 182.768 77.1752 182.768C76.2472 182.768 75.4312 182.6 74.7272 182.264C74.0232 181.928 73.4712 181.4 73.0712 180.68C72.6872 179.944 72.4952 178.992 72.4952 177.824V172.448C72.4952 171.344 72.6872 170.424 73.0712 169.688C73.4712 168.952 74.0232 168.4 74.7272 168.032C75.4472 167.664 76.2872 167.48 77.2472 167.48C77.4392 167.48 77.6392 167.488 77.8472 167.504C78.0552 167.504 78.2232 167.512 78.3512 167.528V164.12H81.4472V167.528C81.5912 167.512 81.7592 167.504 81.9512 167.504C82.1592 167.488 82.3512 167.48 82.5272 167.48C83.5192 167.48 84.3672 167.664 85.0712 168.032C85.7912 168.4 86.3432 168.96 86.7272 169.712C87.1272 170.448 87.3272 171.36 87.3272 172.448V177.824C87.3272 178.992 87.1352 179.944 86.7512 180.68C86.3672 181.4 85.8472 181.936 85.1912 182.288C84.5512 182.624 83.8312 182.792 83.0312 182.792C82.7752 182.792 82.5112 182.784 82.2392 182.768C81.9832 182.752 81.7192 182.736 81.4472 182.72V185.768H78.3512ZM77.7752 180.608C77.8712 180.608 77.9752 180.608 78.0872 180.608C78.1992 180.592 78.2872 180.576 78.3512 180.56V169.64C78.2392 169.624 78.1192 169.616 77.9912 169.616C77.8792 169.6 77.7672 169.592 77.6552 169.592C77.1912 169.592 76.8072 169.688 76.5032 169.88C76.2152 170.072 75.9992 170.376 75.8552 170.792C75.7112 171.208 75.6392 171.752 75.6392 172.424V177.848C75.6392 178.504 75.6952 179.032 75.8072 179.432C75.9352 179.832 76.1512 180.128 76.4552 180.32C76.7592 180.512 77.1992 180.608 77.7752 180.608ZM82.1192 180.584C82.6472 180.584 83.0552 180.496 83.3432 180.32C83.6472 180.144 83.8552 179.856 83.9672 179.456C84.0952 179.04 84.1592 178.504 84.1592 177.848V172.424C84.1592 171.736 84.0952 171.184 83.9672 170.768C83.8392 170.352 83.6312 170.056 83.3432 169.88C83.0712 169.688 82.6872 169.592 82.1912 169.592C82.0632 169.592 81.9352 169.6 81.8072 169.616C81.6792 169.616 81.5592 169.624 81.4472 169.64V180.536C81.5432 180.552 81.6472 180.568 81.7592 180.584C81.8872 180.584 82.0072 180.584 82.1192 180.584ZM89.9651 185V165.56H92.8691V177.824L98.1971 165.56H100.573V185H97.6451V172.544L92.2931 185H89.9651ZM108.79 185.264C107.366 185.264 106.246 184.984 105.43 184.424C104.63 183.864 104.07 183.104 103.75 182.144C103.43 181.168 103.27 180.048 103.27 178.784V171.848C103.27 170.52 103.43 169.368 103.75 168.392C104.07 167.416 104.63 166.664 105.43 166.136C106.246 165.608 107.366 165.344 108.79 165.344C110.134 165.344 111.182 165.576 111.934 166.04C112.702 166.488 113.246 167.136 113.566 167.984C113.886 168.832 114.046 169.816 114.046 170.936V172.568H110.638V170.888C110.638 170.344 110.606 169.848 110.542 169.4C110.494 168.952 110.342 168.6 110.086 168.344C109.846 168.072 109.422 167.936 108.814 167.936C108.206 167.936 107.758 168.08 107.47 168.368C107.198 168.64 107.022 169.016 106.942 169.496C106.862 169.96 106.822 170.488 106.822 171.08V179.528C106.822 180.232 106.878 180.816 106.99 181.28C107.102 181.728 107.302 182.072 107.59 182.312C107.894 182.536 108.302 182.648 108.814 182.648C109.406 182.648 109.822 182.512 110.062 182.24C110.318 181.952 110.478 181.576 110.542 181.112C110.606 180.648 110.638 180.128 110.638 179.552V177.8H114.046V179.36C114.046 180.512 113.894 181.536 113.59 182.432C113.286 183.312 112.75 184.008 111.982 184.52C111.23 185.016 110.166 185.264 108.79 185.264ZM124.515 185V169.232C124.419 169.28 124.227 169.352 123.939 169.448C123.667 169.544 123.363 169.64 123.027 169.736C122.691 169.816 122.379 169.896 122.091 169.976C121.819 170.056 121.627 170.12 121.515 170.168V167.696C121.739 167.616 122.019 167.504 122.355 167.36C122.691 167.216 123.043 167.056 123.411 166.88C123.795 166.688 124.147 166.48 124.467 166.256C124.803 166.032 125.075 165.8 125.283 165.56H127.827V185H124.515ZM136.865 185V180.224H131.057V177.392L136.121 165.56H139.985V177.584H141.977V180.224H139.985V185H136.865ZM133.841 177.584H136.865V169.136L133.841 177.584ZM148.791 185.288C147.655 185.288 146.711 185.048 145.959 184.568C145.223 184.088 144.663 183.424 144.279 182.576C143.911 181.728 143.727 180.752 143.727 179.648V171.032C143.727 169.896 143.903 168.904 144.255 168.056C144.623 167.192 145.175 166.52 145.911 166.04C146.663 165.56 147.623 165.32 148.791 165.32C149.959 165.32 150.911 165.56 151.647 166.04C152.399 166.52 152.951 167.192 153.303 168.056C153.671 168.904 153.855 169.896 153.855 171.032V179.648C153.855 180.752 153.663 181.728 153.279 182.576C152.911 183.424 152.351 184.088 151.599 184.568C150.863 185.048 149.927 185.288 148.791 185.288ZM148.791 182.432C149.287 182.432 149.655 182.28 149.895 181.976C150.135 181.672 150.295 181.304 150.375 180.872C150.455 180.44 150.495 180.016 150.495 179.6V171.08C150.495 170.632 150.455 170.192 150.375 169.76C150.311 169.312 150.159 168.936 149.919 168.632C149.679 168.328 149.303 168.176 148.791 168.176C148.279 168.176 147.903 168.328 147.663 168.632C147.423 168.936 147.263 169.312 147.183 169.76C147.119 170.192 147.087 170.632 147.087 171.08V179.6C147.087 180.016 147.127 180.44 147.207 180.872C147.303 181.304 147.471 181.672 147.711 181.976C147.951 182.28 148.311 182.432 148.791 182.432ZM156.571 178.256V176.048H162.355V178.256H156.571ZM167.358 185V169.232C167.262 169.28 167.07 169.352 166.782 169.448C166.51 169.544 166.206 169.64 165.87 169.736C165.534 169.816 165.222 169.896 164.934 169.976C164.662 170.056 164.47 170.12 164.358 170.168V167.696C164.582 167.616 164.862 167.504 165.198 167.36C165.534 167.216 165.886 167.056 166.254 166.88C166.638 166.688 166.99 166.48 167.31 166.256C167.646 166.032 167.918 165.8 168.126 165.56H170.67V185H167.358ZM179.709 185V180.224H173.901V177.392L178.965 165.56H182.829V177.584H184.821V180.224H182.829V185H179.709ZM176.685 177.584H179.709V169.136L176.685 177.584ZM186.211 185V182.648L191.011 175.232C191.363 174.688 191.691 174.168 191.995 173.672C192.315 173.176 192.571 172.664 192.763 172.136C192.971 171.592 193.075 171 193.075 170.36C193.075 169.64 192.947 169.088 192.691 168.704C192.435 168.32 192.035 168.128 191.491 168.128C190.979 168.128 190.579 168.272 190.291 168.56C190.003 168.848 189.803 169.224 189.691 169.688C189.595 170.152 189.547 170.664 189.547 171.224V172.04H186.283V171.176C186.283 170.024 186.451 169.016 186.787 168.152C187.139 167.272 187.691 166.584 188.443 166.088C189.195 165.592 190.179 165.344 191.395 165.344C193.059 165.344 194.307 165.792 195.139 166.688C195.971 167.584 196.387 168.832 196.387 170.432C196.387 171.232 196.275 171.96 196.051 172.616C195.827 173.256 195.531 173.872 195.163 174.464C194.795 175.056 194.395 175.664 193.963 176.288L189.979 182.336H195.883V185H186.211Z" fill="black"/>
</svg>
