<svg width="170" height="53" viewBox="0 0 170 53" fill="none" xmlns="http://www.w3.org/2000/svg">
<path d="M17.7511 18.231C16.5051 18.231 15.5251 17.986 14.8111 17.496C14.1111 17.006 13.6211 16.341 13.3411 15.501C13.0611 14.647 12.9211 13.667 12.9211 12.561V6.492C12.9211 5.33 13.0611 4.322 13.3411 3.468C13.6211 2.614 14.1111 1.956 14.8111 1.494C15.5251 1.032 16.5051 0.800999 17.7511 0.800999C18.9271 0.800999 19.8441 1.004 20.5021 1.41C21.1741 1.802 21.6501 2.369 21.9301 3.111C22.2101 3.853 22.3501 4.714 22.3501 5.694V7.122H19.3681V5.652C19.3681 5.176 19.3401 4.742 19.2841 4.35C19.2421 3.958 19.1091 3.65 18.8851 3.426C18.6751 3.188 18.3041 3.069 17.7721 3.069C17.2401 3.069 16.8481 3.195 16.5961 3.447C16.3581 3.685 16.2041 4.014 16.1341 4.434C16.0641 4.84 16.0291 5.302 16.0291 5.82V13.212C16.0291 13.828 16.0781 14.339 16.1761 14.745C16.2741 15.137 16.4491 15.438 16.7011 15.648C16.9671 15.844 17.3241 15.942 17.7721 15.942C18.2901 15.942 18.6541 15.823 18.8641 15.585C19.0881 15.333 19.2281 15.004 19.2841 14.598C19.3401 14.192 19.3681 13.737 19.3681 13.233V11.7H22.3501V13.065C22.3501 14.073 22.2171 14.969 21.9511 15.753C21.6851 16.523 21.2161 17.132 20.5441 17.58C19.8861 18.014 18.9551 18.231 17.7511 18.231ZM26.6349 18V3.279H23.9259V0.989999H32.4099V3.279H29.7429V18H26.6349ZM34.3774 18V0.989999H39.3754C40.3974 0.989999 41.2234 1.179 41.8534 1.557C42.4974 1.935 42.9664 2.488 43.2604 3.216C43.5684 3.93 43.7224 4.798 43.7224 5.82C43.7224 6.926 43.5334 7.822 43.1554 8.508C42.7774 9.18 42.2454 9.67 41.5594 9.978C40.8874 10.286 40.0894 10.44 39.1654 10.44H37.4854V18H34.3774ZM37.4854 8.256H38.6614C39.2214 8.256 39.6554 8.179 39.9634 8.025C40.2854 7.857 40.5024 7.598 40.6144 7.248C40.7404 6.884 40.8034 6.401 40.8034 5.799C40.8034 5.183 40.7544 4.686 40.6564 4.308C40.5724 3.916 40.3764 3.629 40.0684 3.447C39.7744 3.265 39.3054 3.174 38.6614 3.174H37.4854V8.256ZM50.4916 18.231C49.2876 18.231 48.3286 18.007 47.6146 17.559C46.9006 17.111 46.3896 16.467 46.0816 15.627C45.7736 14.787 45.6196 13.793 45.6196 12.645V6.282C45.6196 5.134 45.7736 4.154 46.0816 3.342C46.3896 2.516 46.9006 1.886 47.6146 1.452C48.3286 1.018 49.2876 0.800999 50.4916 0.800999C51.7236 0.800999 52.6896 1.018 53.3896 1.452C54.1036 1.886 54.6146 2.516 54.9226 3.342C55.2446 4.154 55.4056 5.134 55.4056 6.282V12.666C55.4056 13.8 55.2446 14.787 54.9226 15.627C54.6146 16.453 54.1036 17.097 53.3896 17.559C52.6896 18.007 51.7236 18.231 50.4916 18.231ZM50.4916 15.942C51.0096 15.942 51.3876 15.83 51.6256 15.606C51.8776 15.382 52.0456 15.074 52.1296 14.682C52.2136 14.29 52.2556 13.863 52.2556 13.401V5.568C52.2556 5.092 52.2136 4.665 52.1296 4.287C52.0456 3.909 51.8776 3.615 51.6256 3.405C51.3876 3.181 51.0096 3.069 50.4916 3.069C50.0016 3.069 49.6306 3.181 49.3786 3.405C49.1266 3.615 48.9586 3.909 48.8746 4.287C48.7906 4.665 48.7486 5.092 48.7486 5.568V13.401C48.7486 13.863 48.7836 14.29 48.8536 14.682C48.9376 15.074 49.1056 15.382 49.3576 15.606C49.6096 15.83 49.9876 15.942 50.4916 15.942ZM58.1666 18V0.989999H60.7076V11.721L65.3696 0.989999H67.4486V18H64.8866V7.101L60.2036 18H58.1666ZM72.1811 18V3.279H69.4721V0.989999H77.9561V3.279H75.2891V18H72.1811ZM79.9236 18V0.989999H87.0636V3.174H83.0316V8.067H86.2026V10.23H83.0316V15.858H87.1056V18H79.9236ZM88.15 18V15.774C88.542 15.788 88.871 15.767 89.137 15.711C89.417 15.641 89.648 15.494 89.83 15.27C90.026 15.046 90.187 14.703 90.313 14.241C90.439 13.765 90.544 13.128 90.628 12.33C90.712 11.532 90.803 10.517 90.901 9.285L91.447 0.989999H99.721V18H96.634V3.321H94.198L93.82 9.663C93.736 10.909 93.638 12.008 93.526 12.96C93.428 13.912 93.267 14.724 93.043 15.396C92.833 16.054 92.532 16.586 92.14 16.992C91.748 17.398 91.23 17.685 90.586 17.853C89.942 18.007 89.13 18.056 88.15 18ZM102.81 18V0.989999H105.897V8.13H106.653C107.801 8.13 108.76 8.291 109.53 8.613C110.3 8.921 110.881 9.439 111.273 10.167C111.665 10.881 111.861 11.847 111.861 13.065C111.861 14.017 111.742 14.815 111.504 15.459C111.266 16.089 110.909 16.593 110.433 16.971C109.971 17.349 109.411 17.615 108.753 17.769C108.095 17.923 107.353 18 106.527 18H102.81ZM105.897 15.9H106.527C107.129 15.9 107.605 15.816 107.955 15.648C108.319 15.48 108.585 15.186 108.753 14.766C108.921 14.332 109.005 13.744 109.005 13.002C108.991 12.12 108.809 11.448 108.459 10.986C108.123 10.524 107.465 10.293 106.485 10.293H105.897V15.9ZM118.82 18.231C117.574 18.231 116.594 17.986 115.88 17.496C115.18 17.006 114.69 16.341 114.41 15.501C114.13 14.647 113.99 13.667 113.99 12.561V6.492C113.99 5.33 114.13 4.322 114.41 3.468C114.69 2.614 115.18 1.956 115.88 1.494C116.594 1.032 117.574 0.800999 118.82 0.800999C119.996 0.800999 120.913 1.004 121.571 1.41C122.243 1.802 122.719 2.369 122.999 3.111C123.279 3.853 123.419 4.714 123.419 5.694V7.122H120.437V5.652C120.437 5.176 120.409 4.742 120.353 4.35C120.311 3.958 120.178 3.65 119.954 3.426C119.744 3.188 119.373 3.069 118.841 3.069C118.309 3.069 117.917 3.195 117.665 3.447C117.427 3.685 117.273 4.014 117.203 4.434C117.133 4.84 117.098 5.302 117.098 5.82V13.212C117.098 13.828 117.147 14.339 117.245 14.745C117.343 15.137 117.518 15.438 117.77 15.648C118.036 15.844 118.393 15.942 118.841 15.942C119.359 15.942 119.723 15.823 119.933 15.585C120.157 15.333 120.297 15.004 120.353 14.598C120.409 14.192 120.437 13.737 120.437 13.233V11.7H123.419V13.065C123.419 14.073 123.286 14.969 123.02 15.753C122.754 16.523 122.285 17.132 121.613 17.58C120.955 18.014 120.024 18.231 118.82 18.231ZM127.704 18V3.279H124.995V0.989999H133.479V3.279H130.812V18H127.704ZM135.446 18V0.989999H139.625C140.381 0.989999 141.06 1.06 141.662 1.2C142.278 1.34 142.803 1.578 143.237 1.914C143.685 2.236 144.028 2.677 144.266 3.237C144.504 3.797 144.623 4.504 144.623 5.358C144.623 6.044 144.525 6.632 144.329 7.122C144.147 7.612 143.874 8.004 143.51 8.298C143.146 8.578 142.691 8.767 142.145 8.865C142.817 8.977 143.37 9.215 143.804 9.579C144.252 9.929 144.581 10.391 144.791 10.965C145.015 11.539 145.127 12.232 145.127 13.044C145.127 13.856 145.022 14.577 144.812 15.207C144.616 15.823 144.315 16.341 143.909 16.761C143.517 17.167 143.02 17.475 142.418 17.685C141.83 17.895 141.137 18 140.339 18H135.446ZM138.554 15.816H139.73C140.668 15.816 141.305 15.592 141.641 15.144C141.977 14.682 142.145 13.975 142.145 13.023C142.145 12.337 142.061 11.784 141.893 11.364C141.739 10.93 141.473 10.608 141.095 10.398C140.731 10.188 140.241 10.083 139.625 10.083H138.554V15.816ZM138.554 7.941H139.604C140.22 7.941 140.696 7.85 141.032 7.668C141.368 7.486 141.599 7.206 141.725 6.828C141.865 6.45 141.935 5.974 141.935 5.4C141.935 4.798 141.83 4.336 141.62 4.014C141.424 3.678 141.123 3.454 140.717 3.342C140.311 3.216 139.793 3.153 139.163 3.153H138.554V7.941ZM152.176 18.231C150.972 18.231 150.013 18.007 149.299 17.559C148.585 17.111 148.074 16.467 147.766 15.627C147.458 14.787 147.304 13.793 147.304 12.645V6.282C147.304 5.134 147.458 4.154 147.766 3.342C148.074 2.516 148.585 1.886 149.299 1.452C150.013 1.018 150.972 0.800999 152.176 0.800999C153.408 0.800999 154.374 1.018 155.074 1.452C155.788 1.886 156.299 2.516 156.607 3.342C156.929 4.154 157.09 5.134 157.09 6.282V12.666C157.09 13.8 156.929 14.787 156.607 15.627C156.299 16.453 155.788 17.097 155.074 17.559C154.374 18.007 153.408 18.231 152.176 18.231ZM152.176 15.942C152.694 15.942 153.072 15.83 153.31 15.606C153.562 15.382 153.73 15.074 153.814 14.682C153.898 14.29 153.94 13.863 153.94 13.401V5.568C153.94 5.092 153.898 4.665 153.814 4.287C153.73 3.909 153.562 3.615 153.31 3.405C153.072 3.181 152.694 3.069 152.176 3.069C151.686 3.069 151.315 3.181 151.063 3.405C150.811 3.615 150.643 3.909 150.559 4.287C150.475 4.665 150.433 5.092 150.433 5.568V13.401C150.433 13.863 150.468 14.29 150.538 14.682C150.622 15.074 150.79 15.382 151.042 15.606C151.294 15.83 151.672 15.942 152.176 15.942ZM5.18613 49.231C3.98213 49.231 3.02313 49.007 2.30913 48.559C1.59513 48.111 1.08413 47.467 0.776133 46.627C0.468133 45.787 0.314133 44.793 0.314133 43.645V37.282C0.314133 36.134 0.468133 35.154 0.776133 34.342C1.08413 33.516 1.59513 32.886 2.30913 32.452C3.02313 32.018 3.98213 31.801 5.18613 31.801C6.41813 31.801 7.38413 32.018 8.08413 32.452C8.79813 32.886 9.30913 33.516 9.61713 34.342C9.93913 35.154 10.1001 36.134 10.1001 37.282V43.666C10.1001 44.8 9.93913 45.787 9.61713 46.627C9.30913 47.453 8.79813 48.097 8.08413 48.559C7.38413 49.007 6.41813 49.231 5.18613 49.231ZM5.18613 46.942C5.70413 46.942 6.08213 46.83 6.32013 46.606C6.57213 46.382 6.74013 46.074 6.82413 45.682C6.90813 45.29 6.95013 44.863 6.95013 44.401V36.568C6.95013 36.092 6.90813 35.665 6.82413 35.287C6.74013 34.909 6.57213 34.615 6.32013 34.405C6.08213 34.181 5.70413 34.069 5.18613 34.069C4.69613 34.069 4.32513 34.181 4.07313 34.405C3.82113 34.615 3.65313 34.909 3.56913 35.287C3.48513 35.665 3.44313 36.092 3.44313 36.568V44.401C3.44313 44.863 3.47813 45.29 3.54813 45.682C3.63213 46.074 3.80013 46.382 4.05213 46.606C4.30413 46.83 4.68213 46.942 5.18613 46.942ZM17.6491 49.672V46.984C17.4951 46.998 17.3271 47.012 17.1451 47.026C16.9631 47.04 16.7881 47.047 16.6201 47.047C15.8081 47.047 15.0941 46.9 14.4781 46.606C13.8621 46.312 13.3791 45.85 13.0291 45.22C12.6931 44.576 12.5251 43.743 12.5251 42.721V38.017C12.5251 37.051 12.6931 36.246 13.0291 35.602C13.3791 34.958 13.8621 34.475 14.4781 34.153C15.1081 33.831 15.8431 33.67 16.6831 33.67C16.8511 33.67 17.0261 33.677 17.2081 33.691C17.3901 33.691 17.5371 33.698 17.6491 33.712V30.73H20.3581V33.712C20.4841 33.698 20.6311 33.691 20.7991 33.691C20.9811 33.677 21.1491 33.67 21.3031 33.67C22.1711 33.67 22.9131 33.831 23.5291 34.153C24.1591 34.475 24.6421 34.965 24.9781 35.623C25.3281 36.267 25.5031 37.065 25.5031 38.017V42.721C25.5031 43.743 25.3351 44.576 24.9991 45.22C24.6631 45.85 24.2081 46.319 23.6341 46.627C23.0741 46.921 22.4441 47.068 21.7441 47.068C21.5201 47.068 21.2891 47.061 21.0511 47.047C20.8271 47.033 20.5961 47.019 20.3581 47.005V49.672H17.6491ZM17.1451 45.157C17.2291 45.157 17.3201 45.157 17.4181 45.157C17.5161 45.143 17.5931 45.129 17.6491 45.115V35.56C17.5511 35.546 17.4461 35.539 17.3341 35.539C17.2361 35.525 17.1381 35.518 17.0401 35.518C16.6341 35.518 16.2981 35.602 16.0321 35.77C15.7801 35.938 15.5911 36.204 15.4651 36.568C15.3391 36.932 15.2761 37.408 15.2761 37.996V42.742C15.2761 43.316 15.3251 43.778 15.4231 44.128C15.5351 44.478 15.7241 44.737 15.9901 44.905C16.2561 45.073 16.6411 45.157 17.1451 45.157ZM20.9461 45.136C21.4081 45.136 21.7651 45.059 22.0171 44.905C22.2831 44.751 22.4651 44.499 22.5631 44.149C22.6751 43.785 22.7311 43.316 22.7311 42.742V37.996C22.7311 37.394 22.6751 36.911 22.5631 36.547C22.4511 36.183 22.2691 35.924 22.0171 35.77C21.7791 35.602 21.4431 35.518 21.0091 35.518C20.8971 35.518 20.7851 35.525 20.6731 35.539C20.5611 35.539 20.4561 35.546 20.3581 35.56V45.094C20.4421 45.108 20.5331 45.122 20.6311 45.136C20.7431 45.136 20.8481 45.136 20.9461 45.136ZM28.2313 49V31.99H30.7723V42.721L35.4343 31.99H37.5133V49H34.9513V38.101L30.2683 49H28.2313ZM45.1229 49.231C43.8769 49.231 42.8969 48.986 42.1829 48.496C41.4829 48.006 40.9929 47.341 40.7129 46.501C40.4329 45.647 40.2929 44.667 40.2929 43.561V37.492C40.2929 36.33 40.4329 35.322 40.7129 34.468C40.9929 33.614 41.4829 32.956 42.1829 32.494C42.8969 32.032 43.8769 31.801 45.1229 31.801C46.2989 31.801 47.2159 32.004 47.8739 32.41C48.5459 32.802 49.0219 33.369 49.3019 34.111C49.5819 34.853 49.7219 35.714 49.7219 36.694V38.122H46.7399V36.652C46.7399 36.176 46.7119 35.742 46.6559 35.35C46.6139 34.958 46.4809 34.65 46.2569 34.426C46.0469 34.188 45.6759 34.069 45.1439 34.069C44.6119 34.069 44.2199 34.195 43.9679 34.447C43.7299 34.685 43.5759 35.014 43.5059 35.434C43.4359 35.84 43.4009 36.302 43.4009 36.82V44.212C43.4009 44.828 43.4499 45.339 43.5479 45.745C43.6459 46.137 43.8209 46.438 44.0729 46.648C44.3389 46.844 44.6959 46.942 45.1439 46.942C45.6619 46.942 46.0259 46.823 46.2359 46.585C46.4599 46.333 46.5999 46.004 46.6559 45.598C46.7119 45.192 46.7399 44.737 46.7399 44.233V42.7H49.7219V44.065C49.7219 45.073 49.5889 45.969 49.3229 46.753C49.0569 47.523 48.5879 48.132 47.9159 48.58C47.2579 49.014 46.3269 49.231 45.1229 49.231ZM52.3477 49V31.99H55.4347V39.109H58.8997V31.99H62.0077V49H58.8997V41.314H55.4347V49H52.3477ZM65.0724 49V31.99H68.1594V39.13H68.9154C70.0774 39.13 71.0434 39.291 71.8134 39.613C72.5834 39.921 73.1644 40.439 73.5564 41.167C73.9484 41.881 74.1444 42.847 74.1444 44.065C74.1444 45.017 74.0184 45.815 73.7664 46.459C73.5284 47.089 73.1784 47.593 72.7164 47.971C72.2544 48.349 71.6944 48.615 71.0364 48.769C70.3784 48.923 69.6294 49 68.7894 49H65.0724ZM68.1594 46.9H68.8104C69.3984 46.9 69.8744 46.816 70.2384 46.648C70.6024 46.48 70.8684 46.186 71.0364 45.766C71.2044 45.332 71.2814 44.744 71.2674 44.002C71.2674 43.12 71.0924 42.448 70.7424 41.986C70.3924 41.524 69.7344 41.293 68.7684 41.293H68.1594V46.9ZM75.7404 49V31.99H78.8274V49H75.7404ZM80.7856 49L84.2086 39.97L80.8906 31.99H83.7886L85.9936 37.261L87.9256 31.99H90.6136L87.3376 40.558L90.8656 49H87.9676L85.5526 43.288L83.4526 49H80.7856ZM102.315 49.252C101.265 49.252 100.411 49.056 99.7526 48.664C99.1086 48.258 98.6396 47.691 98.3456 46.963C98.0516 46.221 97.9046 45.36 97.9046 44.38V43.792H100.803C100.803 43.862 100.803 43.96 100.803 44.086C100.803 44.198 100.803 44.31 100.803 44.422C100.817 45.206 100.929 45.801 101.139 46.207C101.349 46.613 101.755 46.816 102.357 46.816C102.791 46.816 103.113 46.711 103.323 46.501C103.547 46.291 103.694 45.99 103.764 45.598C103.848 45.192 103.89 44.709 103.89 44.149C103.89 43.281 103.729 42.595 103.407 42.091C103.099 41.573 102.476 41.293 101.538 41.251C101.496 41.237 101.426 41.23 101.328 41.23C101.244 41.23 101.146 41.23 101.034 41.23C100.922 41.23 100.817 41.23 100.719 41.23V39.172C100.803 39.172 100.887 39.172 100.971 39.172C101.055 39.172 101.139 39.172 101.223 39.172C101.321 39.172 101.398 39.172 101.454 39.172C102.406 39.13 103.05 38.878 103.386 38.416C103.722 37.954 103.89 37.282 103.89 36.4C103.89 35.686 103.764 35.126 103.512 34.72C103.274 34.314 102.84 34.111 102.21 34.111C101.622 34.111 101.202 34.321 100.95 34.741C100.712 35.161 100.572 35.714 100.53 36.4C100.53 36.456 100.53 36.561 100.53 36.715C100.53 36.855 100.53 37.002 100.53 37.156H97.6316V36.337C97.6316 35.371 97.8136 34.552 98.1776 33.88C98.5416 33.194 99.0596 32.676 99.7316 32.326C100.418 31.962 101.237 31.78 102.189 31.78C103.155 31.78 103.974 31.962 104.646 32.326C105.332 32.676 105.857 33.187 106.221 33.859C106.585 34.517 106.767 35.329 106.767 36.295C106.767 37.303 106.55 38.136 106.116 38.794C105.696 39.452 105.164 39.872 104.52 40.054C104.954 40.222 105.339 40.474 105.675 40.81C106.025 41.132 106.291 41.566 106.473 42.112C106.669 42.644 106.767 43.309 106.767 44.107C106.767 45.129 106.62 46.032 106.326 46.816C106.032 47.586 105.556 48.188 104.898 48.622C104.254 49.042 103.393 49.252 102.315 49.252ZM108.319 52.381V46.795H108.928C109.208 46.641 109.474 46.438 109.726 46.186C109.992 45.92 110.23 45.57 110.44 45.136C110.65 44.702 110.839 44.149 111.007 43.477C111.189 42.791 111.343 41.958 111.469 40.978C111.609 39.998 111.714 38.836 111.784 37.492L112.162 31.99H119.68V46.795H121.465V52.381H119.302L119.113 49H110.734L110.524 52.381H108.319ZM111.826 46.795H116.74V34.216H114.598L114.409 37.975C114.353 39.319 114.262 40.46 114.136 41.398C114.01 42.322 113.863 43.092 113.695 43.708C113.527 44.31 113.338 44.8 113.128 45.178C112.932 45.556 112.722 45.864 112.498 46.102C112.274 46.34 112.05 46.571 111.826 46.795ZM122.727 49L126.129 31.99H129.447L132.849 49H129.972L129.3 45.073H126.339L125.646 49H122.727ZM126.654 43.099H128.964L127.809 35.959L126.654 43.099ZM135.022 49V31.99H138.109V39.109H141.574V31.99H144.682V49H141.574V41.314H138.109V49H135.022ZM147.747 49V31.99H150.288V42.721L154.95 31.99H157.029V49H154.467V38.101L149.784 49H147.747ZM160.102 49V31.99H162.643V42.721L167.305 31.99H169.384V49H166.822V38.101L162.139 49H160.102ZM164.995 30.646C163.987 30.646 163.224 30.373 162.706 29.827C162.202 29.267 161.95 28.518 161.95 27.58H163.588C163.588 28.084 163.693 28.469 163.903 28.735C164.113 29.001 164.477 29.134 164.995 29.134C165.499 29.134 165.856 29.001 166.066 28.735C166.276 28.455 166.381 28.07 166.381 27.58H168.019C168.019 28.518 167.76 29.267 167.242 29.827C166.738 30.373 165.989 30.646 164.995 30.646Z" fill="black"/>
</svg>
